<?xml version="1.0" encoding="UTF-8" standalone="no"?>
<svg
   width="435.02899"
   height="259.99399"
   viewBox="0 0 435.02898 259.994"
   fill="none"
   version="1.1"
   id="svg265"
   sodipodi:docname="mockup1-screen.svg"
   inkscape:version="1.1.1 (3bf5ae0d25, 2021-09-20)"
   xmlns:inkscape="http://www.inkscape.org/namespaces/inkscape"
   xmlns:sodipodi="http://sodipodi.sourceforge.net/DTD/sodipodi-0.dtd"
   xmlns="http://www.w3.org/2000/svg"
   xmlns:svg="http://www.w3.org/2000/svg">
  <sodipodi:namedview
     id="namedview267"
     pagecolor="#505050"
     bordercolor="#eeeeee"
     borderopacity="1"
     inkscape:pageshadow="0"
     inkscape:pageopacity="0"
     inkscape:pagecheckerboard="0"
     showgrid="false"
     fit-margin-top="0"
     fit-margin-left="0"
     fit-margin-right="0"
     fit-margin-bottom="0"
     inkscape:zoom="1.8971963"
     inkscape:cx="95.667486"
     inkscape:cy="79.854678"
     inkscape:window-width="1920"
     inkscape:window-height="991"
     inkscape:window-x="-9"
     inkscape:window-y="-9"
     inkscape:window-maximized="1"
     inkscape:current-layer="freepik--Screen--inject-39"
     inkscape:snap-global="false"
     inkscape:snap-bbox="true"
     inkscape:bbox-paths="true"
     inkscape:bbox-nodes="true"
     inkscape:snap-bbox-edge-midpoints="true"
     inkscape:snap-bbox-midpoints="true"
     inkscape:snap-intersection-paths="true" />
  <g
     clip-path="url(#clip0)"
     id="g173"
     transform="translate(-107.73824,-71.690981)">
    <mask
       id="mask0"
       mask-type="alpha"
       maskUnits="userSpaceOnUse"
       x="140"
       y="-3"
       width="565"
       height="428">
      <path
         d="m 140,-3 h 557.241 c 3.781,0 6.846,3.0651 6.846,6.8461 V 418.154 c 0,3.781 -3.065,6.846 -6.846,6.846 H 140 Z"
         fill="#1a164a"
         id="path86" />
    </mask>
    <g
       id="g1684"
       transform="matrix(1.8547643,0,0,1.8547643,-284.35493,-182.15149)">
      <g
         id="freepik--Shadow--inject-39"
         transform="matrix(0.53915206,0,0,0.53915206,149.9222,121.54784)">
        <ellipse
           id="freepik--path--inject-39"
           cx="250"
           cy="416.23999"
           rx="193.89"
           ry="11.32"
           style="fill:#f5f5f5" />
      </g>
      <g
         id="freepik--Screen--inject-39"
         transform="matrix(0.53915206,0,0,0.53915206,230.06198,89.15091)">
        <path
           d="m 238.27202,460.74341 h -21.62 a 2.1,2.1 0 0 1 -2.12,-2.28 v 0 a 2.5,2.5 0 0 1 2.44,-2.28 h 21.63 a 2.11,2.11 0 0 1 2.12,2.28 v 0 a 2.49,2.49 0 0 1 -2.45,2.28 z"
           style="opacity:0.8;fill:#ffffff"
           id="path1083" />
        <rect
           style="opacity:0.12797075;fill:#2c0e61;fill-opacity:1;stroke:none;stroke-width:9.16689;stroke-linecap:round;stroke-linejoin:round"
           id="rect6584"
           width="345.23248"
           height="259.99399"
           x="55.01722"
           y="88.488548" />
        <rect
           style="opacity:0.32358318;fill:#081038;fill-opacity:1;stroke:none;stroke-width:7.62385;stroke-linecap:round;stroke-linejoin:round"
           id="rect6710"
           width="90.085098"
           height="259.99399"
           x="-34.61758"
           y="88.488548" />
        <path
           d="m 153.60832,265.17766 h -49.70705 a 8.3309512,7.526577 23.081914 0 1 -8.91754,-8.27644 l -0.07598,-46.5136 a 9.9183352,8.9606951 23.081912 0 1 8.89111,-8.27643 h 49.71811 a 8.3309512,7.526577 23.081914 0 1 8.90648,8.27643 l 0.0836,46.47223 a 9.907077,8.9505239 23.081914 0 1 -8.89892,8.31781 z"
           style="opacity:1;fill:#4367c3;fill-opacity:1;stroke-width:1.07007"
           id="path1061" />
        <path
           d="m 148.06981,235.7709 h -39.47647 a 7.0244814,4.8333877 5.527392 0 1 -7.60349,-5.27985 l -0.0805,-14.4443 a 8.3306867,5.7321581 5.5273898 0 1 7.57306,-5.26981 h 39.54866 a 7.0244814,4.8333877 5.527392 0 1 7.60243,5.26981 l 0.0805,14.4443 a 8.3597135,5.7521307 5.5273916 0 1 -7.64418,5.27985 z"
           style="opacity:0.458867;fill:#ffffff;stroke-width:1.20389"
           id="path1071" />
        <path
           d="m 148.42814,258.17103 h -39.47646 a 7.0119978,3.1273872 2.3430022 0 1 -7.6035,-3.41019 l -0.0805,-9.3294 a 8.3158819,3.7089263 2.3430015 0 1 7.57306,-3.40371 h 39.54866 a 7.0119978,3.1273872 2.3430022 0 1 7.60243,3.40371 l 0.0805,9.3294 a 8.3448572,3.7218493 2.3430024 0 1 -7.64419,3.41019 z"
           style="opacity:0.468007;fill:#ffffff;stroke-width:0.967534"
           id="path1071-2" />
        <path
           d="m 32.518893,236.82715 h -44.782492 a 2.9966971,2.7141317 64.790039 0 1 -3.014828,-3.20008 v 0 a 3.5674967,3.2311092 64.790036 0 1 2.990322,-3.20009 h 44.782491 a 2.9966971,2.7141317 64.790039 0 1 3.001701,3.20009 v 0 a 3.5532266,3.2181847 64.790038 0 1 -2.977194,3.20008 z"
           style="opacity:1;fill:#4367c3;fill-opacity:1;stroke-width:1.35806"
           id="path1073" />
        <path
           d="m 32.673594,260.93882 h -44.78249 a 3.0109671,2.7270561 64.790037 0 1 -3.014828,-3.20008 v 0 a 3.5674967,3.2311092 64.790036 0 1 2.990335,-3.20009 h 44.78249 a 2.9966971,2.7141317 64.790039 0 1 3.001689,3.20009 v 0 a 3.5532266,3.2181847 64.790038 0 1 -2.977196,3.20008 z"
           style="opacity:1;fill:#4367c3;fill-opacity:1;stroke-width:1.35806"
           id="path1077" />
        <path
           d="m 32.828309,287.68596 h -44.78249 a 3.0109671,2.7270561 64.790037 0 1 -3.014843,-3.20008 v 0 a 3.5532266,3.2181847 64.790038 0 1 2.990335,-3.20008 h 44.782492 a 2.9824272,2.7012072 64.790043 0 1 3.001689,3.20008 v 0 a 3.5532266,3.2181847 64.790038 0 1 -2.977183,3.20008 z"
           style="opacity:1;fill:#4367c3;fill-opacity:1;stroke-width:1.35806"
           id="path1081" />
        <path
           d="m 32.595315,310.43256 h -44.78249 a 3.0109671,2.7270561 64.790037 0 1 -3.014843,-3.20008 v 0 a 3.5532266,3.2181847 64.790038 0 1 2.990335,-3.20008 h 44.782492 a 2.9824272,2.7012072 64.790043 0 1 3.001689,3.20008 v 0 a 3.5532266,3.2181847 64.790038 0 1 -2.977183,3.20008 z"
           style="fill:#4367c3;fill-opacity:1;stroke-width:1.35806"
           id="path1081-7" />
        <path
           d="m 106.36073,163.99655 v 0 l 2.97071,-2.78376 a 23.866866,21.618434 22.456463 0 1 -7.3579,-16.66948 28.128805,25.478867 22.456465 0 1 18.7616,-22.81145 l -1.0881,-3.80008 v 0 l -0.98059,-3.46867 a 37.096888,33.602093 22.456453 0 0 -14.94915,8.0641 c -12.947179,12.07406 -12.97224,31.94707 -0.0838,44.03216 z"
           style="fill:#ffffff;fill-opacity:0.6;stroke-width:1.1426"
           id="path1103" />
        <path
           d="m 150.73946,166.53729 -3.36837,-3.15935 v 0 l -2.31629,-2.20935 a 27.468506,24.880772 22.456472 0 1 -17.87076,6.92627 23.782827,21.542311 22.456464 0 1 -17.85508,-6.91522 l -2.32824,2.20933 v 0 l -3.36891,3.14832 a 31.502342,28.534592 22.456469 0 0 23.53878,9.11353 36.364555,32.938749 22.456469 0 0 23.56887,-9.11353 z"
           style="fill:#010643;fill-opacity:1;stroke-width:1.1426"
           id="path1105" />
        <path
           d="m 150.73946,166.53729 c 12.93452,-12.08509 12.97139,-31.95813 0.0838,-44.03217 a 32.258684,29.219683 22.456447 0 0 -32.15847,-8.06409 l 1.21988,4.29717 v 0 l 0.84882,2.97156 a 26.412025,23.923821 22.456454 0 1 6.53506,-0.79536 23.566729,21.346572 22.456464 0 1 25.21631,23.62891 27.612571,25.011266 22.456464 0 1 -7.42593,16.68051 l 2.97471,2.79481 v 0 z"
           style="fill:#4367c3;fill-opacity:1;stroke-width:1.1426"
           id="path1107" />
        <path
           d="m 250.85008,160.70043 v 0 l -3.36491,-2.35952 a 21.815811,23.650932 62.30429 0 1 -16.62749,9.14439 25.71149,27.874311 62.304287 0 1 -26.79186,-14.16901 l -3.87304,1.53926 v 0 l -3.53703,1.39334 a 33.908882,36.761256 62.304305 0 0 10.63602,12.70604 c 14.60339,10.29159 35.65841,7.53146 46.65506,-6.08939 z"
           style="fill:#ffffff;fill-opacity:0.6;stroke-width:1.1426"
           id="path1103-8" />
        <path
           d="m 247.32601,119.27202 -2.87495,3.55992 v 0 l -2.01596,2.45316 a 25.107935,27.219986 62.304277 0 1 9.83991,15.56934 21.738994,23.567653 62.304288 0 1 -4.82461,17.49341 l 2.66643,1.84536 v 0 l 3.80686,2.67699 a 28.795114,31.217326 62.304282 0 0 6.35724,-23.06156 33.239482,36.035548 62.304282 0 0 -12.95492,-20.53662 z"
           style="fill:#010643;fill-opacity:1;stroke-width:1.1426"
           id="path1105-3" />
        <path
           d="m 247.32601,119.27202 c -14.6133,-10.27832 -35.67,-7.52913 -46.65508,6.0894 a 29.48646,31.966825 62.304313 0 0 -4.03833,30.89211 l 4.38114,-1.73085 v 0 l 3.0289,-1.20175 a 24.142246,26.173063 62.304303 0 1 -1.7578,-5.93682 21.541467,23.35351 62.304289 0 1 21.49846,-26.64707 25.239621,27.362748 62.304288 0 1 18.70973,4.53651 l 2.54392,-3.14453 v 0 z"
           style="fill:#4367c3;fill-opacity:1;stroke-width:1.1426"
           id="path1107-8" />
        <path
           d="m 345.66359,125.56593 v 0 l -3.17623,2.5779 a 23.782506,21.695119 24.584383 0 1 6.06271,17.11894 28.02938,25.569245 24.584385 0 1 -20.46008,21.49789 l 0.79435,3.86313 v 0 l 0.7125,3.52537 a 36.965765,33.721286 24.584371 0 0 15.52826,-7.04339 c 13.83844,-11.177 15.38504,-30.99737 3.45495,-43.91365 z"
           style="fill:#ffffff;fill-opacity:0.6;stroke-width:1.1426"
           id="path1103-2" />
        <path
           d="m 301.59319,120.06298 3.11784,3.37658 v 0 l 2.14118,2.35863 a 27.371415,24.969029 24.584393 0 1 18.35526,-5.71304 23.698763,21.618726 24.584384 0 1 17.27982,8.09191 l 2.49143,-2.04792 v 0 l 3.60133,-2.91488 a 31.390993,28.63581 24.584389 0 0 -22.78063,-10.6648 36.23602,33.055589 24.58439 0 0 -24.20623,7.51352 z"
           style="fill:#010643;fill-opacity:1;stroke-width:1.1426"
           id="path1105-0" />
        <path
           d="m 301.59319,120.06298 c -13.82666,11.18884 -15.38505,31.00846 -3.45495,43.91366 a 32.144662,29.323331 24.584364 0 0 31.45857,10.19465 l -0.88774,-4.36775 v 0 l -0.61911,-3.02072 a 26.318668,24.008683 24.584372 0 1 -6.5792,0.35616 23.48343,21.422292 24.584384 0 1 -23.34248,-25.25518 27.514971,25.099986 24.584384 0 1 8.68406,-16.14097 l -2.7531,-2.98664 v 0 z"
           style="fill:#4367c3;fill-opacity:1;stroke-width:1.1426"
           id="path1107-6" />
        <path
           d="m 389.97902,301.18074 c 2.6046,-2.08263 9.5427,-1.20719 9.57645,1.19797 l 0.69401,42.16894 c 0.0326,2.16557 -3.22667,3.93489 -7.33113,3.93489 H 62.94084 c -4.004347,0 -7.352311,-1.76932 -7.384834,-3.93489 l -0.310138,-25.05623 a 11.839575,5.4063194 2.623429 0 1 14.026209,-4.81957 c 19.058732,2.66321 34.726243,1.09662 48.959953,-2.28539 30.42869,-7.23396 54.26207,-22.77084 90.68156,-22.77084 1.4015,0 2.78299,0 4.13398,0.0554 54.43734,1.50207 76.27,32.48369 118.23546,32.48369 12.41346,0 23.30046,-2.46967 32.56658,-5.98069 11.23195,-4.3035 20.09186,-10.1736 26.12941,-14.99318 z"
           style="opacity:0.19926874;fill:#0046ff;fill-opacity:1;stroke-width:1.35832"
           id="path1085" />
        <path
           d="m 399.81753,318.55147 0.472,25.99618 c 0.0326,2.16557 -3.22668,3.93489 -7.33111,3.93489 H 62.94084 c -4.004347,0 -7.352311,-1.76932 -7.384834,-3.93489 l -0.886862,-51.66061 c -0.06877,-3.53866 9.745119,-5.03152 14.32304,-2.16559 11.80084,7.37219 29.647062,16.94681 49.099686,21.66501 a 46.534155,21.248945 2.6234291 0 0 22.78398,2.9028 c 26.6689,0 46.84794,-14.55085 72.03156,-25.61834 15.4301,-6.78242 32.74735,-12.25627 54.59101,-12.25627 45.5894,0 58.18779,34.09637 96.21104,38.75928 7.32646,0.92152 15.59894,0.70957 25.22823,-1.04132 a 7.4173232,3.3869809 2.6234291 0 1 10.87984,3.41886 z"
           style="opacity:0.488117;fill:#3157b9;fill-opacity:1;stroke-width:1.35832"
           id="path1087" />
        <g
           style="opacity:0.458768;fill:#0a3dc3;fill-opacity:0.705882"
           id="g1095"
           transform="matrix(2.0021694,0,0.15867886,0.92152353,-500.35546,33.690102)">
          <path
             d="m 425.91,298.18 a 0.37,0.37 0 0 1 -0.24,-0.1 0.26,0.26 0 0 1 -0.07,-0.11 0.31,0.31 0 0 1 0,-0.13 0.33,0.33 0 0 1 0.1,-0.24 0.34,0.34 0 0 1 0.48,0 0.31,0.31 0 0 1 0.1,0.24 0.59,0.59 0 0 1 0,0.13 0.44,0.44 0 0 1 -0.08,0.11 0.35,0.35 0 0 1 -0.29,0.1 z"
             style="fill:#0a3dc3;fill-opacity:0.705882"
             id="path1089" />
          <path
             d="m 265.64,321.61 a 0.34,0.34 0 0 1 -0.34,-0.34 v 0 a 0.34,0.34 0 0 1 0.34,-0.33 v 0 a 0.34,0.34 0 0 1 0.34,0.34 v 0 a 0.35,0.35 0 0 1 -0.34,0.35 v 0 z m -3.43,-0.19 v 0 a 0.33,0.33 0 0 1 -0.31,-0.37 v 0 a 0.34,0.34 0 0 1 0.38,-0.3 v 0 a 0.34,0.34 0 0 1 0.3,0.37 v 0 a 0.35,0.35 0 0 1 -0.34,0.31 v 0 z m 6.47,-0.3 a 0.34,0.34 0 0 1 0.3,-0.38 v 0 a 0.34,0.34 0 0 1 0.38,0.3 v 0 a 0.34,0.34 0 0 1 -0.3,0.38 v 0 a 0.34,0.34 0 0 1 -0.38,-0.3 z m -9.85,-0.22 a 0.36,0.36 0 0 1 -0.27,-0.41 v 0 a 0.36,0.36 0 0 1 0.41,-0.27 v 0 a 0.36,0.36 0 0 1 0.27,0.41 v 0 a 0.35,0.35 0 0 1 -0.34,0.27 z m 13.19,-0.34 a 0.34,0.34 0 0 1 0.25,-0.42 v 0 a 0.35,0.35 0 0 1 0.41,0.25 v 0 a 0.35,0.35 0 0 1 -0.25,0.42 h -0.08 A 0.33,0.33 0 0 1 272,320.56 Z m 109.37,0.14 a 0.34,0.34 0 0 1 -0.34,-0.34 v 0 a 0.34,0.34 0 0 1 0.34,-0.34 v 0 a 0.34,0.34 0 0 1 0.34,0.34 v 0 a 0.34,0.34 0 0 1 -0.34,0.34 z m 3.05,-0.48 a 0.33,0.33 0 0 1 0.3,-0.37 v 0 a 0.33,0.33 0 0 1 0.38,0.3 v 0 a 0.35,0.35 0 0 1 -0.31,0.38 v 0 a 0.35,0.35 0 0 1 -0.37,-0.31 z m -6.47,0.27 a 0.33,0.33 0 0 1 -0.29,-0.38 v 0 a 0.34,0.34 0 0 1 0.38,-0.3 v 0 a 0.35,0.35 0 0 1 0.3,0.38 v 0 a 0.35,0.35 0 0 1 -0.34,0.31 v 0 z m -122.46,-0.41 a 0.34,0.34 0 0 1 -0.24,-0.42 v 0 a 0.36,0.36 0 0 1 0.43,-0.24 v 0 a 0.35,0.35 0 0 1 0.23,0.43 v 0 a 0.33,0.33 0 0 1 -0.33,0.24 h -0.09 z m 132.29,-0.33 a 0.33,0.33 0 0 1 0.27,-0.4 v 0 a 0.34,0.34 0 0 1 0.4,0.27 v 0 a 0.34,0.34 0 0 1 -0.27,0.4 h -0.06 a 0.35,0.35 0 0 1 -0.34,-0.27 z m -13.19,0.12 a 0.32,0.32 0 0 1 -0.25,-0.41 v 0 a 0.34,0.34 0 0 1 0.41,-0.25 v 0 a 0.34,0.34 0 0 1 0.25,0.41 v 0 a 0.34,0.34 0 0 1 -0.33,0.26 h -0.08 z m -99.35,-0.28 a 0.33,0.33 0 0 1 0.2,-0.44 v 0 a 0.34,0.34 0 0 1 0.44,0.19 v 0 a 0.34,0.34 0 0 1 -0.2,0.44 v 0 a 0.27,0.27 0 0 1 -0.12,0 v 0 a 0.35,0.35 0 0 1 -0.32,-0.19 z M 391.11,319 a 0.34,0.34 0 0 1 0.24,-0.43 v 0 a 0.34,0.34 0 0 1 0.42,0.24 v 0 a 0.34,0.34 0 0 1 -0.24,0.42 v 0 h -0.09 v 0 A 0.34,0.34 0 0 1 391.11,319 Z m -19.78,-0.12 v 0 a 0.34,0.34 0 0 1 -0.21,-0.43 v 0 a 0.35,0.35 0 0 1 0.44,-0.21 v 0 a 0.35,0.35 0 0 1 0.21,0.44 v 0 a 0.35,0.35 0 0 1 -0.33,0.22 v 0 a 0.2,0.2 0 0 1 -0.11,-0.02 z m -93,-0.64 a 0.34,0.34 0 0 1 0.15,-0.46 v 0 a 0.35,0.35 0 0 1 0.46,0.16 v 0 a 0.33,0.33 0 0 1 -0.15,0.45 v 0 a 0.29,0.29 0 0 1 -0.16,0 v 0 a 0.34,0.34 0 0 1 -0.26,-0.15 z m 116,-0.24 a 0.33,0.33 0 0 1 0.2,-0.43 v 0 a 0.35,0.35 0 0 1 0.43,0.21 v 0 a 0.35,0.35 0 0 1 -0.21,0.44 v 0 h -0.11 v 0 A 0.34,0.34 0 0 1 394.36,318 Z m -26.19,-0.42 v 0 a 0.34,0.34 0 0 1 -0.17,-0.45 v 0 a 0.35,0.35 0 0 1 0.45,-0.17 v 0 a 0.34,0.34 0 0 1 0.17,0.46 v 0 a 0.35,0.35 0 0 1 -0.31,0.2 v 0 a 0.23,0.23 0 0 1 -0.11,-0.04 z m 29.36,-0.78 a 0.33,0.33 0 0 1 0.19,-0.44 v 0 a 0.32,0.32 0 0 1 0.44,0.18 v 0 a 0.34,0.34 0 0 1 -0.18,0.45 v 0 a 0.3,0.3 0 0 1 -0.13,0 v 0 a 0.35,0.35 0 0 1 -0.29,-0.19 z m -116.2,-0.2 a 0.35,0.35 0 0 1 0.11,-0.48 v 0 a 0.34,0.34 0 0 1 0.47,0.11 v 0 a 0.34,0.34 0 0 1 -0.11,0.47 v 0 a 0.3,0.3 0 0 1 -0.18,0.06 v 0 a 0.36,0.36 0 0 1 -0.26,-0.16 z m 83.79,-0.55 v 0 a 0.35,0.35 0 0 1 -0.14,-0.47 v 0 a 0.35,0.35 0 0 1 0.47,-0.13 v 0 a 0.34,0.34 0 0 1 0.13,0.46 v 0 a 0.35,0.35 0 0 1 -0.3,0.18 v 0 a 0.47,0.47 0 0 1 -0.13,-0.04 z m 35.52,-0.62 a 0.34,0.34 0 0 1 0.16,-0.45 v 0 a 0.35,0.35 0 0 1 0.46,0.16 v 0 a 0.34,0.34 0 0 1 -0.17,0.45 v 0 h -0.15 v 0 a 0.34,0.34 0 0 1 -0.27,-0.16 z m -116.49,-0.71 a 0.35,0.35 0 0 1 0.08,-0.48 v 0 a 0.35,0.35 0 0 1 0.48,0.07 v 0 a 0.35,0.35 0 0 1 -0.08,0.48 v 0 a 0.37,0.37 0 0 1 -0.2,0.07 v 0 a 0.35,0.35 0 0 1 -0.25,-0.14 z m 78,-0.38 v 0 a 0.33,0.33 0 0 1 -0.11,-0.46 v 0 a 0.32,0.32 0 0 1 0.46,-0.12 v 0 a 0.34,0.34 0 0 1 0.12,0.47 v 0 a 0.35,0.35 0 0 1 -0.29,0.17 v 0 a 0.37,0.37 0 0 1 -0.13,-0.06 z m 41.51,-0.43 a 0.34,0.34 0 0 1 0.14,-0.46 v 0 a 0.35,0.35 0 0 1 0.46,0.14 v 0 a 0.35,0.35 0 0 1 -0.14,0.47 v 0 a 0.47,0.47 0 0 1 -0.16,0 v 0 a 0.34,0.34 0 0 1 -0.25,-0.15 z m -116.81,-1.24 a 0.34,0.34 0 0 1 0.05,-0.48 v 0 a 0.35,0.35 0 0 1 0.48,0.05 v 0 a 0.36,0.36 0 0 1 0,0.49 v 0 a 0.36,0.36 0 0 1 -0.22,0.07 v 0 a 0.3,0.3 0 0 1 -0.26,-0.13 z m 72.42,-0.15 v 0 a 0.34,0.34 0 0 1 -0.1,-0.47 v 0 a 0.35,0.35 0 0 1 0.48,-0.1 v 0 a 0.35,0.35 0 0 1 0.1,0.47 v 0 a 0.34,0.34 0 0 1 -0.29,0.16 v 0 a 0.41,0.41 0 0 1 -0.14,-0.06 z m 47.36,-0.25 a 0.34,0.34 0 0 1 0.12,-0.47 v 0 a 0.35,0.35 0 0 1 0.47,0.12 v 0 a 0.35,0.35 0 0 1 -0.12,0.47 v 0 a 0.41,0.41 0 0 1 -0.18,0.05 v 0 a 0.34,0.34 0 0 1 -0.24,-0.17 z m -50.19,-1.64 a 0.35,0.35 0 0 1 -0.09,-0.48 v 0 a 0.36,0.36 0 0 1 0.48,-0.09 v 0 a 0.36,0.36 0 0 1 0.09,0.48 v 0 a 0.35,0.35 0 0 1 -0.29,0.15 v 0 a 0.35,0.35 0 0 1 -0.14,-0.06 z m 53.09,-0.12 a 0.36,0.36 0 0 1 0.11,-0.48 v 0 a 0.34,0.34 0 0 1 0.47,0.11 v 0 a 0.34,0.34 0 0 1 -0.11,0.47 v 0 a 0.28,0.28 0 0 1 -0.18,0.06 v 0 a 0.36,0.36 0 0 1 -0.24,-0.16 z m -120,0 a 0.35,0.35 0 0 1 0,-0.48 v 0 a 0.36,0.36 0 0 1 0.49,0 v 0 a 0.34,0.34 0 0 1 0,0.48 v 0 a 0.3,0.3 0 0 1 -0.22,0.08 v 0 a 0.35,0.35 0 0 1 -0.27,-0.06 z m 122.9,-1.88 a 0.35,0.35 0 0 1 0.08,-0.48 v 0 a 0.34,0.34 0 0 1 0.48,0.09 v 0 a 0.34,0.34 0 0 1 -0.09,0.47 v 0 a 0.35,0.35 0 0 1 -0.19,0.06 v 0 a 0.34,0.34 0 0 1 -0.28,-0.12 z m -58.75,0.08 a 0.33,0.33 0 0 1 -0.09,-0.47 v 0 a 0.34,0.34 0 0 1 0.47,-0.1 v 0 a 0.34,0.34 0 0 1 0.09,0.48 v 0 a 0.32,0.32 0 0 1 -0.28,0.15 v 0 a 0.35,0.35 0 0 1 -0.19,-0.04 z m -61.54,-0.38 a 0.33,0.33 0 0 1 0,-0.48 v 0 a 0.35,0.35 0 0 1 0.48,0 v 0 a 0.34,0.34 0 0 1 0,0.48 v 0 a 0.32,0.32 0 0 1 -0.22,0.08 v 0 a 0.32,0.32 0 0 1 -0.26,-0.06 z m 58.72,-1.5 a 0.33,0.33 0 0 1 -0.1,-0.47 v 0 a 0.33,0.33 0 0 1 0.47,-0.1 v 0 a 0.34,0.34 0 0 1 0.1,0.47 v 0 a 0.32,0.32 0 0 1 -0.28,0.15 v 0 a 0.32,0.32 0 0 1 -0.19,-0.03 z m 64.35,-0.16 a 0.33,0.33 0 0 1 0.07,-0.47 v 0 a 0.35,0.35 0 0 1 0.48,0.07 v 0 a 0.35,0.35 0 0 1 -0.08,0.48 v 0 a 0.36,0.36 0 0 1 -0.2,0.06 v 0 a 0.31,0.31 0 0 1 -0.27,-0.12 z m -120.46,-0.51 a 0.34,0.34 0 0 1 0,-0.48 v 0 a 0.35,0.35 0 0 1 0.48,0.05 v 0 a 0.34,0.34 0 0 1 -0.05,0.48 v 0 a 0.3,0.3 0 0 1 -0.22,0.08 v 0 a 0.33,0.33 0 0 1 -0.21,-0.11 z M 348,305 a 0.34,0.34 0 0 1 -0.11,-0.47 v 0 a 0.34,0.34 0 0 1 0.47,-0.11 v 0 a 0.34,0.34 0 0 1 0.11,0.47 v 0 a 0.35,0.35 0 0 1 -0.29,0.17 v 0 A 0.3,0.3 0 0 1 348,305 Z m 69.92,-0.36 a 0.34,0.34 0 0 1 0.06,-0.48 v 0 a 0.34,0.34 0 0 1 0.48,0.06 v 0 a 0.36,0.36 0 0 1 -0.06,0.48 v 0 a 0.31,0.31 0 0 1 -0.2,0.07 v 0 a 0.34,0.34 0 0 1 -0.3,-0.11 z M 297.4,304.06 a 0.35,0.35 0 0 1 0.07,-0.48 v 0 a 0.35,0.35 0 0 1 0.48,0.07 v 0 a 0.35,0.35 0 0 1 -0.07,0.48 v 0 a 0.37,0.37 0 0 1 -0.2,0.07 v 0 a 0.35,0.35 0 0 1 -0.3,-0.12 z m 47.69,-0.79 a 0.34,0.34 0 0 1 -0.12,-0.47 v 0 a 0.33,0.33 0 0 1 0.46,-0.12 v 0 a 0.33,0.33 0 0 1 0.13,0.46 v 0 a 0.35,0.35 0 0 1 -0.3,0.18 v 0 a 0.41,0.41 0 0 1 -0.19,-0.03 z m 75.48,-0.75 a 0.34,0.34 0 0 1 0.05,-0.48 v 0 a 0.34,0.34 0 0 1 0.48,0.05 v 0 a 0.35,0.35 0 0 1 0,0.48 v 0 a 0.4,0.4 0 0 1 -0.22,0.08 v 0 a 0.34,0.34 0 0 1 -0.33,-0.11 z m -120.41,-0.44 a 0.34,0.34 0 0 1 0.09,-0.48 v 0 a 0.35,0.35 0 0 1 0.48,0.1 v 0 a 0.34,0.34 0 0 1 -0.1,0.47 v 0 a 0.33,0.33 0 0 1 -0.19,0.06 v 0 a 0.35,0.35 0 0 1 -0.3,-0.13 z m 42,-0.42 a 0.34,0.34 0 0 1 -0.14,-0.46 v 0 a 0.34,0.34 0 0 1 0.46,-0.15 v 0 a 0.37,0.37 0 0 1 0.15,0.47 v 0 a 0.37,0.37 0 0 1 -0.31,0.18 v 0 a 0.32,0.32 0 0 1 -0.22,-0.02 z m 81,-1.33 a 0.34,0.34 0 0 1 0,-0.48 v 0 a 0.35,0.35 0 0 1 0.48,0 v 0 a 0.35,0.35 0 0 1 0,0.48 v 0 a 0.31,0.31 0 0 1 -0.22,0.09 v 0 a 0.34,0.34 0 0 1 -0.27,-0.07 z M 303,300.29 a 0.34,0.34 0 0 1 0.13,-0.47 v 0 a 0.34,0.34 0 0 1 0.46,0.13 v 0 a 0.34,0.34 0 0 1 -0.13,0.47 v 0 a 0.38,0.38 0 0 1 -0.17,0 v 0 A 0.34,0.34 0 0 1 303,300.29 Z m 36.05,-0.06 v 0 a 0.34,0.34 0 0 1 -0.17,-0.45 v 0 a 0.34,0.34 0 0 1 0.45,-0.17 v 0 a 0.33,0.33 0 0 1 0.17,0.45 v 0 a 0.34,0.34 0 0 1 -0.31,0.2 v 0 a 0.35,0.35 0 0 1 -0.13,-0.03 z M 335.94,299 a 0.33,0.33 0 0 1 -0.2,-0.44 v 0 a 0.35,0.35 0 0 1 0.44,-0.2 v 0 a 0.35,0.35 0 0 1 0.2,0.44 v 0 a 0.33,0.33 0 0 1 -0.32,0.22 v 0 A 0.25,0.25 0 0 1 335.94,299 Z M 306,298.72 a 0.35,0.35 0 0 1 0.17,-0.45 v 0 a 0.34,0.34 0 0 1 0.46,0.17 v 0 a 0.34,0.34 0 0 1 -0.18,0.45 v 0 a 0.32,0.32 0 0 1 -0.14,0 v 0 A 0.34,0.34 0 0 1 306,298.72 Z m 26.73,-0.81 a 0.35,0.35 0 0 1 -0.23,-0.43 v 0 a 0.35,0.35 0 0 1 0.43,-0.23 v 0 a 0.35,0.35 0 0 1 0.23,0.43 v 0 a 0.35,0.35 0 0 1 -0.33,0.24 h -0.1 z m -23.59,-0.47 a 0.34,0.34 0 0 1 0.22,-0.43 v 0 a 0.34,0.34 0 0 1 0.43,0.22 v 0 a 0.34,0.34 0 0 1 -0.22,0.43 v 0 h -0.11 v 0 a 0.34,0.34 0 0 1 -0.31,-0.22 z m 20.33,-0.36 a 0.34,0.34 0 0 1 -0.26,-0.4 v 0 a 0.33,0.33 0 0 1 0.41,-0.26 v 0 a 0.33,0.33 0 0 1 0.26,0.4 v 0 a 0.34,0.34 0 0 1 -0.34,0.27 h -0.07 z m -17.08,-0.57 a 0.34,0.34 0 0 1 0.27,-0.41 v 0 a 0.34,0.34 0 0 1 0.4,0.26 v 0 a 0.34,0.34 0 0 1 -0.26,0.41 h -0.07 a 0.35,0.35 0 0 1 -0.33,-0.26 z m 13.77,0 v 0 a 0.35,0.35 0 0 1 -0.29,-0.39 v 0 a 0.33,0.33 0 0 1 0.38,-0.29 v 0 a 0.35,0.35 0 0 1 0.29,0.39 v 0 a 0.35,0.35 0 0 1 -0.34,0.29 h -0.05 z m -10.43,-0.57 a 0.34,0.34 0 0 1 0.3,-0.37 v 0 a 0.33,0.33 0 0 1 0.38,0.3 v 0 a 0.35,0.35 0 0 1 -0.31,0.38 v 0 a 0.35,0.35 0 0 1 -0.36,-0.32 z m 7.08,0.22 v 0 a 0.33,0.33 0 0 1 -0.32,-0.36 v 0 a 0.34,0.34 0 0 1 0.36,-0.32 v 0 a 0.35,0.35 0 0 1 0.32,0.37 v 0 a 0.34,0.34 0 0 1 -0.34,0.32 v 0 z m -3.7,-0.44 a 0.33,0.33 0 0 1 0.34,-0.34 v 0 a 0.34,0.34 0 0 1 0.34,0.34 v 0 a 0.34,0.34 0 0 1 -0.34,0.34 v 0 a 0.34,0.34 0 0 1 -0.33,-0.35 z"
             style="fill:#0a3dc3;fill-opacity:0.705882"
             id="path1091" />
          <path
             d="m 252.25,319 a 0.31,0.31 0 0 1 -0.13,0 0.28,0.28 0 0 1 -0.11,-0.08 0.21,0.21 0 0 1 -0.07,-0.11 0.28,0.28 0 0 1 0,-0.13 0.37,0.37 0 0 1 0.1,-0.24 0.26,0.26 0 0 1 0.11,-0.07 0.3,0.3 0 0 1 0.26,0 0.21,0.21 0 0 1 0.11,0.07 0.33,0.33 0 0 1 0.1,0.24 0.27,0.27 0 0 1 0,0.13 0.23,0.23 0 0 1 -0.08,0.11 0.28,0.28 0 0 1 -0.11,0.08 0.28,0.28 0 0 1 -0.18,0 z"
             style="fill:#0a3dc3;fill-opacity:0.705882"
             id="path1093" />
        </g>
        <rect
           x="-215.94618"
           y="333.46255"
           width="0.81661671"
           height="0.43653071"
           transform="matrix(0.07571883,-0.99712921,0.99780639,0.06619972,0,0)"
           style="opacity:1;fill:#407bff;stroke-width:0.959509"
           id="rect1119" />
        <path
           d="M 347.66167,223.33674 H 175.76552 a 1.5689389,2.5979592 0 0 1 -1.5804,-2.8255 v 0 a 1.8666937,3.0910024 0 0 1 1.82088,-2.80654 h 171.90763 a 1.5574868,2.5789961 0 0 1 1.56892,2.80654 v 0 a 1.8552418,3.0720394 0 0 1 -1.82088,2.8255 z"
           style="opacity:1;fill:#d4d4d4;fill-rule:evenodd;stroke-width:1.47365;fill-opacity:1"
           id="path1123" />
        <path
           d="m 305.08466,249.57056 h -129.6422 a 1.4044398,1.9956401 0 0 1 -1.41476,-2.17173 v 0 a 1.6729358,2.3771596 0 0 1 1.64196,-2.1864 h 129.63186 a 1.4147666,2.0103139 0 0 1 1.46639,2.25978 v 0 a 1.6832625,2.3918333 0 0 1 -1.68325,2.09835 z"
           style="opacity:1;fill:#d4d4d4;fill-rule:evenodd;stroke-width:1.23099;fill-opacity:1"
           id="path1125" />
        <path
           d="M 307.7969,236.15075 H 175.58326 a 1.4322971,2.4844799 0 0 1 -1.44283,-2.70371 v 0 a 1.7061186,2.9594541 0 0 1 1.67453,-2.72197 h 132.20312 a 1.4428287,2.5027482 0 0 1 1.49549,2.81333 v 0 a 1.7166502,2.9777222 0 0 1 -1.71667,2.61235 z"
           style="opacity:1;fill:#d4d4d4;fill-rule:evenodd;stroke-width:1.38706;fill-opacity:1"
           id="path1125-4" />
        <ellipse
           style="opacity:1;fill:#4367c3;fill-opacity:1;stroke:none;stroke-width:5.64287;stroke-linecap:round;stroke-linejoin:round"
           id="path11356"
           cx="10.39674"
           cy="143.95389"
           rx="29.652851"
           ry="31.672642" />
        <path
           d="m 32.398908,210.87834 h -44.782492 a 2.9966971,2.7141317 64.790039 0 1 -3.014828,-3.20009 v 0 a 3.5674967,3.2311092 64.790036 0 1 2.990322,-3.20008 H 32.3744 a 2.9966971,2.7141317 64.790039 0 1 3.001702,3.20008 v 0 a 3.5532266,3.2181847 64.790038 0 1 -2.977194,3.20009 z"
           style="opacity:1;fill:#4367c3;fill-opacity:1;stroke-width:1.35806"
           id="path1073-1" />
      </g>
    </g>
  </g>
  <defs
     id="defs263">
    <filter
       id="filter0_d"
       x="174.60699"
       y="-217.66299"
       width="606.91803"
       height="513.79199"
       filterUnits="userSpaceOnUse"
       color-interpolation-filters="sRGB">
      <feFlood
         flood-opacity="0"
         result="BackgroundImageFix"
         id="feFlood175" />
      <feColorMatrix
         in="SourceAlpha"
         type="matrix"
         values="0 0 0 0 0 0 0 0 0 0 0 0 0 0 0 0 0 0 127 0"
         id="feColorMatrix177" />
      <feOffset
         id="feOffset179" />
      <feGaussianBlur
         stdDeviation="30.3029"
         id="feGaussianBlur181" />
      <feColorMatrix
         type="matrix"
         values="0 0 0 0 0.129427 0 0 0 0 0.224219 0 0 0 0 0.4375 0 0 0 0.3 0"
         id="feColorMatrix183" />
      <feBlend
         mode="normal"
         in2="BackgroundImageFix"
         result="effect1_dropShadow"
         id="feBlend185" />
      <feBlend
         mode="normal"
         in="SourceGraphic"
         in2="effect1_dropShadow"
         result="shape"
         id="feBlend187" />
    </filter>
    <filter
       id="filter1_d"
       x="181.125"
       y="-230.604"
       width="603.58502"
       height="512.40002"
       filterUnits="userSpaceOnUse"
       color-interpolation-filters="sRGB">
      <feFlood
         flood-opacity="0"
         result="BackgroundImageFix"
         id="feFlood190" />
      <feColorMatrix
         in="SourceAlpha"
         type="matrix"
         values="0 0 0 0 0 0 0 0 0 0 0 0 0 0 0 0 0 0 127 0"
         id="feColorMatrix192" />
      <feOffset
         id="feOffset194" />
      <feGaussianBlur
         stdDeviation="30.3029"
         id="feGaussianBlur196" />
      <feColorMatrix
         type="matrix"
         values="0 0 0 0 0.129427 0 0 0 0 0.224219 0 0 0 0 0.4375 0 0 0 0.3 0"
         id="feColorMatrix198" />
      <feBlend
         mode="normal"
         in2="BackgroundImageFix"
         result="effect1_dropShadow"
         id="feBlend200" />
      <feBlend
         mode="normal"
         in="SourceGraphic"
         in2="effect1_dropShadow"
         result="shape"
         id="feBlend202" />
    </filter>
    <filter
       id="filter2_d"
       x="215.625"
       y="-202.98399"
       width="551.88898"
       height="465.04401"
       filterUnits="userSpaceOnUse"
       color-interpolation-filters="sRGB">
      <feFlood
         flood-opacity="0"
         result="BackgroundImageFix"
         id="feFlood205" />
      <feColorMatrix
         in="SourceAlpha"
         type="matrix"
         values="0 0 0 0 0 0 0 0 0 0 0 0 0 0 0 0 0 0 127 0"
         id="feColorMatrix207" />
      <feOffset
         id="feOffset209" />
      <feGaussianBlur
         stdDeviation="30.3029"
         id="feGaussianBlur211" />
      <feColorMatrix
         type="matrix"
         values="0 0 0 0 0.129427 0 0 0 0 0.224219 0 0 0 0 0.4375 0 0 0 0.3 0"
         id="feColorMatrix213" />
      <feBlend
         mode="normal"
         in2="BackgroundImageFix"
         result="effect1_dropShadow"
         id="feBlend215" />
      <feBlend
         mode="normal"
         in="SourceGraphic"
         in2="effect1_dropShadow"
         result="shape"
         id="feBlend217" />
    </filter>
    <filter
       id="filter3_d"
       x="174.41"
       y="-261.31601"
       width="622.776"
       height="528.56097"
       filterUnits="userSpaceOnUse"
       color-interpolation-filters="sRGB">
      <feFlood
         flood-opacity="0"
         result="BackgroundImageFix"
         id="feFlood220" />
      <feColorMatrix
         in="SourceAlpha"
         type="matrix"
         values="0 0 0 0 0 0 0 0 0 0 0 0 0 0 0 0 0 0 127 0"
         id="feColorMatrix222" />
      <feOffset
         id="feOffset224" />
      <feGaussianBlur
         stdDeviation="30.3029"
         id="feGaussianBlur226" />
      <feColorMatrix
         type="matrix"
         values="0 0 0 0 0.129427 0 0 0 0 0.224219 0 0 0 0 0.4375 0 0 0 0.3 0"
         id="feColorMatrix228" />
      <feBlend
         mode="normal"
         in2="BackgroundImageFix"
         result="effect1_dropShadow"
         id="feBlend230" />
      <feBlend
         mode="normal"
         in="SourceGraphic"
         in2="effect1_dropShadow"
         result="shape"
         id="feBlend232" />
    </filter>
    <linearGradient
       id="paint0_linear"
       x1="158.13901"
       y1="122.102"
       x2="525.76099"
       y2="355.30099"
       gradientUnits="userSpaceOnUse">
      <stop
         stop-color="#E1467C"
         id="stop235" />
      <stop
         offset="1"
         stop-color="#FF9CE3"
         id="stop237" />
    </linearGradient>
    <linearGradient
       id="paint1_linear"
       x1="693.716"
       y1="149.856"
       x2="275.07501"
       y2="-82.122902"
       gradientUnits="userSpaceOnUse">
      <stop
         stop-color="#E0695B"
         id="stop240" />
      <stop
         offset="1"
         stop-color="#3913B8"
         id="stop242" />
    </linearGradient>
    <linearGradient
       id="paint2_linear"
       x1="694.07703"
       y1="133.91499"
       x2="284.15399"
       y2="-93.233498"
       gradientUnits="userSpaceOnUse">
      <stop
         stop-color="#FF5A3D"
         id="stop245" />
      <stop
         offset="1"
         stop-color="#2FB8FF"
         id="stop247" />
    </linearGradient>
    <linearGradient
       id="paint3_linear"
       x1="681.78198"
       y1="127.141"
       x2="311.86899"
       y2="-77.836403"
       gradientUnits="userSpaceOnUse">
      <stop
         stop-color="#FF5A3D"
         id="stop250" />
      <stop
         offset="1"
         stop-color="#2FB8FF"
         id="stop252" />
    </linearGradient>
    <linearGradient
       id="paint4_linear"
       x1="703.97302"
       y1="114.883"
       x2="280.43201"
       y2="-119.812"
       gradientUnits="userSpaceOnUse">
      <stop
         stop-color="#FF6C6C"
         id="stop255" />
      <stop
         offset="1"
         stop-color="#2FB8FF"
         id="stop257" />
    </linearGradient>
    <clipPath
       id="clip0">
      <rect
         width="701"
         height="428"
         fill="#ffffff"
         id="rect260"
         x="0"
         y="0" />
    </clipPath>
    <linearGradient
       id="linearGradient5480"
       inkscape:swatch="solid">
      <stop
         style="stop-color:#f2f2f2;stop-opacity:1;"
         offset="0"
         id="stop5478" />
    </linearGradient>
  </defs>
</svg>
