<?xml version="1.0" encoding="UTF-8" standalone="no"?>
<svg
   version="1.1"
   id="Layer_1"
   x="0px"
   y="0px"
   viewBox="0 0 399.19495 771.757"
   enable-background="new 0 0 1345.672 1693.834"
   xml:space="preserve"
   sodipodi:docname="hacker.svg"
   inkscape:version="1.1.1 (3bf5ae0d25, 2021-09-20)"
   width="399.19495"
   height="771.75702"
   xmlns:inkscape="http://www.inkscape.org/namespaces/inkscape"
   xmlns:sodipodi="http://sodipodi.sourceforge.net/DTD/sodipodi-0.dtd"
   xmlns="http://www.w3.org/2000/svg"
   xmlns:svg="http://www.w3.org/2000/svg"><defs
   id="defs7"><linearGradient
     id="linearGradient11732"
     inkscape:swatch="solid"><stop
       style="stop-color:#2a4c66;stop-opacity:1;"
       offset="0"
       id="stop11730" /></linearGradient><radialGradient
     id="euOPzsRE7HX272-fill"
     cx="0"
     cy="0"
     r="180.47"
     spreadMethod="pad"
     gradientUnits="userSpaceOnUse"
     gradientTransform="rotate(-13.979991,1678.4213,-2321.2811)"><stop
       id="euOPzsRE7HX272-fill-0"
       offset="0%"
       stop-color="#3cfffb" /><stop
       id="euOPzsRE7HX272-fill-1"
       offset="60%"
       stop-color="#76afff" /><stop
       id="euOPzsRE7HX272-fill-2"
       offset="100%"
       stop-color="#345ac2" /></radialGradient><radialGradient
     id="euOPzsRE7HX281-fill"
     cx="0"
     cy="0"
     r="180.47"
     spreadMethod="pad"
     gradientUnits="userSpaceOnUse"
     gradientTransform="rotate(-13.979991,1678.4213,-2321.2811)"><stop
       id="euOPzsRE7HX281-fill-0"
       offset="0%"
       stop-color="#3cfffb" /><stop
       id="euOPzsRE7HX281-fill-1"
       offset="23%"
       stop-color="#76afff" /><stop
       id="euOPzsRE7HX281-fill-2"
       offset="100%"
       stop-color="#345ac2" /></radialGradient><linearGradient
     id="euOPzsRE7HX284-fill"
     x1="604.81635"
     y1="405.63324"
     x2="555.63446"
     y2="359.98969"
     spreadMethod="pad"
     gradientUnits="userSpaceOnUse"
     gradientTransform="scale(1.0253229,0.97530253)"><stop
       id="euOPzsRE7HX284-fill-0"
       offset="0%"
       stop-color="#1e177b" /><stop
       id="euOPzsRE7HX284-fill-1"
       offset="100%"
       stop-color="#2b2390" /></linearGradient><radialGradient
     id="euOPzsRE7HX288-fill"
     cx="522.22302"
     cy="288.34479"
     r="26.633335"
     spreadMethod="pad"
     gradientUnits="userSpaceOnUse"
     gradientTransform="scale(1.0267975,0.97390188)"
     fx="522.22302"
     fy="288.34479"><stop
       id="euOPzsRE7HX288-fill-0"
       offset="35%"
       stop-color="#433c8f" /><stop
       id="euOPzsRE7HX288-fill-1"
       offset="70%"
       stop-color="#2b2390" /></radialGradient><radialGradient
     id="euOPzsRE7HX289-fill"
     cx="399.8877"
     cy="363.62619"
     r="35.281273"
     spreadMethod="pad"
     gradientUnits="userSpaceOnUse"
     gradientTransform="scale(1.283915,0.77886774)"
     fx="399.8877"
     fy="363.62619"><stop
       id="euOPzsRE7HX289-fill-0"
       offset="35%"
       stop-color="#433c8f" /><stop
       id="euOPzsRE7HX289-fill-1"
       offset="70%"
       stop-color="#2b2390" /></radialGradient><radialGradient
     id="euOPzsRE7HX290-fill"
     cx="398.88293"
     cy="363.74808"
     r="41.856701"
     spreadMethod="pad"
     gradientUnits="userSpaceOnUse"
     gradientTransform="scale(1.2674265,0.78900037)"
     fx="398.88293"
     fy="363.74808"><stop
       id="euOPzsRE7HX290-fill-0"
       offset="35%"
       stop-color="#433c8f" /><stop
       id="euOPzsRE7HX290-fill-1"
       offset="70%"
       stop-color="#2b2390" /></radialGradient><radialGradient
     id="euOPzsRE7HX291-fill"
     cx="325.73859"
     cy="467.60251"
     r="35.706543"
     spreadMethod="pad"
     gradientUnits="userSpaceOnUse"
     gradientTransform="scale(1.53976,0.64945187)"
     fx="325.73859"
     fy="467.60251"><stop
       id="euOPzsRE7HX291-fill-0"
       offset="35%"
       stop-color="#433c8f" /><stop
       id="euOPzsRE7HX291-fill-1"
       offset="70%"
       stop-color="#2b2390" /></radialGradient><radialGradient
     id="euOPzsRE7HX292-fill"
     cx="375.466"
     cy="457.57312"
     r="38.309643"
     spreadMethod="pad"
     gradientUnits="userSpaceOnUse"
     gradientTransform="scale(1.3993497,0.71461763)"
     fx="375.466"
     fy="457.57312"><stop
       id="euOPzsRE7HX292-fill-0"
       offset="35%"
       stop-color="#433c8f" /><stop
       id="euOPzsRE7HX292-fill-1"
       offset="70%"
       stop-color="#2b2390" /></radialGradient><radialGradient
     id="euOPzsRE7HX293-fill"
     cx="716.81763"
     cy="220.30138"
     r="26.565681"
     spreadMethod="pad"
     gradientUnits="userSpaceOnUse"
     gradientTransform="scale(0.75774431,1.3197064)"
     fx="716.81763"
     fy="220.30138"><stop
       id="euOPzsRE7HX293-fill-0"
       offset="0%"
       stop-color="#3f378f" /><stop
       id="euOPzsRE7HX293-fill-1"
       offset="100%"
       stop-color="#2b2390" /></radialGradient><linearGradient
     id="euOPzsRE7HX340-fill"
     x1="858.06128"
     y1="374.45016"
     x2="828.72827"
     y2="335.8186"
     spreadMethod="pad"
     gradientUnits="userSpaceOnUse"
     gradientTransform="scale(0.96680894,1.0343305)"><stop
       id="euOPzsRE7HX340-fill-0"
       offset="0%"
       stop-color="#89bcff" /><stop
       id="euOPzsRE7HX340-fill-1"
       offset="100%"
       stop-color="#3cfffb" /></linearGradient><radialGradient
     id="euOPzsRE7HX342-fill"
     cx="0"
     cy="0"
     r="45.25"
     spreadMethod="pad"
     gradientUnits="userSpaceOnUse"><stop
       id="euOPzsRE7HX342-fill-0"
       offset="0%"
       stop-color="rgba(255,254,250,0.58)" /><stop
       id="euOPzsRE7HX342-fill-1"
       offset="39%"
       stop-color="rgba(255,254,250,0.27)" /><stop
       id="euOPzsRE7HX342-fill-2"
       offset="100%"
       stop-color="rgba(255,254,250,0)" /></radialGradient><radialGradient
     id="euOPzsRE7HX353-fill"
     cx="0"
     cy="0"
     r="58.470001"
     spreadMethod="pad"
     gradientUnits="userSpaceOnUse"
     gradientTransform="translate(859.71,356.85)"><stop
       id="euOPzsRE7HX353-fill-0"
       offset="0%"
       stop-color="rgba(79,67,148,0)" /><stop
       id="euOPzsRE7HX353-fill-1"
       offset="99%"
       stop-color="#494394" /></radialGradient><linearGradient
     id="euOPzsRE7HX372-fill"
     x1="561.96698"
     y1="648.03979"
     x2="483.65607"
     y2="710.47675"
     spreadMethod="pad"
     gradientUnits="userSpaceOnUse"
     gradientTransform="scale(1.4452645,0.69191486)"><stop
       id="euOPzsRE7HX372-fill-0"
       offset="0%"
       stop-color="#1e177b" /><stop
       id="euOPzsRE7HX372-fill-1"
       offset="100%"
       stop-color="#362ea3" /></linearGradient><linearGradient
     id="euOPzsRE7HX373-fill"
     x1="455.76175"
     y1="789.7478"
     x2="450.90677"
     y2="702.7099"
     spreadMethod="pad"
     gradientUnits="userSpaceOnUse"
     gradientTransform="scale(1.6050802,0.62302182)"><stop
       id="euOPzsRE7HX373-fill-0"
       offset="0%"
       stop-color="#89bcff" /><stop
       id="euOPzsRE7HX373-fill-1"
       offset="100%"
       stop-color="#73d0fe" /></linearGradient><radialGradient
     id="euOPzsRE7HX123-fill"
     cx="601.04547"
     cy="494.88254"
     r="178.82401"
     spreadMethod="pad"
     gradientUnits="userSpaceOnUse"
     gradientTransform="scale(1.0485435,0.95370388)"
     fx="601.04547"
     fy="494.88254"><stop
       id="euOPzsRE7HX123-fill-0"
       offset="0%"
       stop-color="#3cfffb" /><stop
       id="euOPzsRE7HX123-fill-1"
       offset="38%"
       stop-color="#76afff" /><stop
       id="euOPzsRE7HX123-fill-2"
       offset="100%"
       stop-color="#345ac2" /></radialGradient><linearGradient
     id="euOPzsRE7HX124-fill"
     x1="660.31134"
     y1="655.09174"
     x2="708.83502"
     y2="645.06586"
     spreadMethod="pad"
     gradientUnits="userSpaceOnUse"
     gradientTransform="scale(1.1121654,0.89914685)"><stop
       id="euOPzsRE7HX124-fill-0"
       offset="0%"
       stop-color="#345ac2" /><stop
       id="euOPzsRE7HX124-fill-1"
       offset="100%"
       stop-color="#660aed" /></linearGradient><radialGradient
     id="euOPzsRE7HX125-fill"
     cx="855.09021"
     cy="402.69934"
     r="61.813137"
     spreadMethod="pad"
     gradientUnits="userSpaceOnUse"
     gradientTransform="scale(0.85002499,1.176436)"
     fx="855.09021"
     fy="402.69934"><stop
       id="euOPzsRE7HX125-fill-0"
       offset="0%"
       stop-color="#310f59" /><stop
       id="euOPzsRE7HX125-fill-1"
       offset="100%"
       stop-color="#345ac2" /></radialGradient><radialGradient
     id="euOPzsRE7HX134-fill"
     cx="843.31567"
     cy="422.61798"
     r="241.01718"
     spreadMethod="pad"
     gradientUnits="userSpaceOnUse"
     gradientTransform="scale(0.74836191,1.3362519)"
     fx="843.31567"
     fy="422.61798"><stop
       id="euOPzsRE7HX134-fill-0"
       offset="0%"
       stop-color="#3cfffb" /><stop
       id="euOPzsRE7HX134-fill-1"
       offset="38%"
       stop-color="#76afff" /><stop
       id="euOPzsRE7HX134-fill-2"
       offset="100%"
       stop-color="#345ac2" /></radialGradient><clipPath
     id="euOPzsRE7HX151"><circle
       r="47.560001"
       transform="translate(676.09,609.71)"
       fill="none"
       id="circle600"
       cx="0"
       cy="0" /></clipPath><clipPath
     id="euOPzsRE7HX160"><polygon
       points="889.23,459.96 876.72,492 811.6,483.25 827.7,470.94 "
       fill="none"
       id="polygon616" /></clipPath><radialGradient
     id="euOPzsRE7HX159-fill"
     cx="0"
     cy="0"
     r="85.269997"
     spreadMethod="pad"
     gradientUnits="userSpaceOnUse"
     gradientTransform="translate(887.06,460.21)"><stop
       id="euOPzsRE7HX159-fill-0"
       offset="0%"
       stop-color="#1e177b" /><stop
       id="euOPzsRE7HX159-fill-1"
       offset="100%"
       stop-color="#5d3fb9" /></radialGradient><radialGradient
     id="euOPzsRE7HX164-fill"
     cx="0"
     cy="0"
     r="165.34"
     spreadMethod="pad"
     gradientUnits="userSpaceOnUse"
     gradientTransform="translate(724.3,493.4)"><stop
       id="euOPzsRE7HX164-fill-0"
       offset="0%"
       stop-color="#3cfffb" /><stop
       id="euOPzsRE7HX164-fill-1"
       offset="38%"
       stop-color="#76afff" /><stop
       id="euOPzsRE7HX164-fill-2"
       offset="100%"
       stop-color="#345ac2" /></radialGradient><linearGradient
     id="euOPzsRE7HX165-fill"
     x1="835.04999"
     y1="538.08002"
     x2="875.39001"
     y2="562.59003"
     spreadMethod="pad"
     gradientUnits="userSpaceOnUse"><stop
       id="euOPzsRE7HX165-fill-0"
       offset="0%"
       stop-color="#345ac2" /><stop
       id="euOPzsRE7HX165-fill-1"
       offset="100%"
       stop-color="#5d3fb9" /></linearGradient><radialGradient
     id="euOPzsRE7HX169-fill"
     cx="0"
     cy="0"
     r="62.889999"
     spreadMethod="pad"
     gradientUnits="userSpaceOnUse"
     gradientTransform="rotate(12.77001,-123.58132,30.778536)"><stop
       id="euOPzsRE7HX169-fill-0"
       offset="0%"
       stop-color="#1e177b" /><stop
       id="euOPzsRE7HX169-fill-1"
       offset="100%"
       stop-color="#5d3fb9" /></radialGradient><radialGradient
     id="euOPzsRE7HX171-fill"
     cx="0"
     cy="0"
     r="35.450001"
     spreadMethod="pad"
     gradientUnits="userSpaceOnUse"
     gradientTransform="rotate(12.77001,-51.727255,19.824178)"><stop
       id="euOPzsRE7HX171-fill-0"
       offset="0%"
       stop-color="#1e177b" /><stop
       id="euOPzsRE7HX171-fill-1"
       offset="100%"
       stop-color="#5d3fb9" /></radialGradient><radialGradient
     id="euOPzsRE7HX183-fill"
     cx="0"
     cy="0"
     r="165.34"
     spreadMethod="pad"
     gradientUnits="userSpaceOnUse"
     gradientTransform="translate(724.3,493.4)"><stop
       id="euOPzsRE7HX183-fill-0"
       offset="0%"
       stop-color="#3cfffb" /><stop
       id="euOPzsRE7HX183-fill-1"
       offset="38%"
       stop-color="#76afff" /><stop
       id="euOPzsRE7HX183-fill-2"
       offset="100%"
       stop-color="#345ac2" /></radialGradient><clipPath
     id="euOPzsRE7HX202"><circle
       r="47.560001"
       transform="translate(777.91,542.85)"
       fill="none"
       id="circle691"
       cx="0"
       cy="0" /></clipPath><style
     type="text/css"
     id="style12398">
    .fil0 {fill:black}
  </style><clipPath
     id="freepik--clip-path-2--inject-6"><path
       d="m 289.37,208.18 c 0,0 0,18.7 1,22.64 1,3.94 7.55,22.63 9.19,27.88 1.64,5.25 14.43,28.53 17.38,32.14 2.95,3.61 15.74,-5.25 15.74,-5.25 l 7.22,15.75 c 0,0 15.59,-25.88 19.2,-32.12 3.61,-6.24 5.65,-13.12 3,-23 -2.65,-9.88 -2.88,-10.2 -19.28,-18.07 -16.4,-7.87 -40.34,-17.05 -44.93,-20.33 -4.59,-3.28 -7.89,-1.93 -8.52,0.36 z"
       style="fill:#ffffff;stroke:#263238;stroke-linecap:round;stroke-linejoin:round"
       id="path5" /></clipPath><clipPath
     id="freepik--clip-path-3--inject-6"><path
       d="m 276.42,206.8 c 0,0 29.32,17 48.77,25.45 19.45,8.45 44.22,21.67 46,32.72 1.78,11.05 -10.61,21.23 -15.47,25.2 -4.86,3.97 -14.6,13.71 -14.6,13.71 0,0 23.88,-13.26 32.28,-19.45 8.4,-6.19 11.5,-16.81 8,-35.82 -3.5,-19.01 -5.75,-48.2 -16.36,-64.56 -10.61,-16.36 -36.7,-7.52 -55.71,0.88 a 125.47,125.47 0 0 0 -32.91,21.87 z"
       style="fill:#616161;stroke:#263238;stroke-linecap:round;stroke-linejoin:round"
       id="path8" /></clipPath><filter
     inkscape:collect="always"
     style="color-interpolation-filters:sRGB"
     id="filter20587"
     x="-0.00019003871"
     y="-0.00014443729"
     width="1.0003801"
     height="1.0002889"><feGaussianBlur
       inkscape:collect="always"
       stdDeviation="0.0063223883"
       id="feGaussianBlur20589" /></filter></defs><sodipodi:namedview
   id="namedview5"
   pagecolor="#505050"
   bordercolor="#eeeeee"
   borderopacity="1"
   inkscape:pageshadow="0"
   inkscape:pageopacity="0"
   inkscape:pagecheckerboard="0"
   showgrid="false"
   inkscape:zoom="0.7071068"
   inkscape:cx="337.99703"
   inkscape:cy="430.62802"
   inkscape:window-width="1920"
   inkscape:window-height="1001"
   inkscape:window-x="-9"
   inkscape:window-y="-9"
   inkscape:window-maximized="1"
   inkscape:current-layer="Layer_1"
   inkscape:snap-bbox="true"
   inkscape:snap-bbox-edge-midpoints="true"
   inkscape:bbox-nodes="true"
   inkscape:bbox-paths="true"
   inkscape:snap-bbox-midpoints="true"
   inkscape:object-paths="true"
   inkscape:snap-intersection-paths="true"
   inkscape:snap-midpoints="true"
   inkscape:snap-smooth-nodes="true"
   inkscape:snap-global="true"
   fit-margin-top="0"
   fit-margin-left="0"
   fit-margin-right="0"
   fit-margin-bottom="0" />
<path
   style="fill:#162734;fill-opacity:1;stroke:none;stroke-width:0.381737px;stroke-linecap:butt;stroke-linejoin:miter;stroke-opacity:1"
   d="m 60.617352,196.22417 c -0.812261,-3.97843 -1.179728,-12.90157 -0.273335,-18.64247 1.442652,-9.13747 12.739044,-24.6958 20.117894,-19.1166 7.003768,5.66541 -18.851296,42.62402 -19.844559,37.75907 z"
   id="path25468"
   sodipodi:nodetypes="sscs" /><path
   style="fill:#ffffff;fill-opacity:1;stroke:none;stroke-width:0.143084px;stroke-linecap:butt;stroke-linejoin:miter;stroke-opacity:1"
   d="m 1.2231891,104.19971 c 3.6523626,0.31482 9.5247689,-1.48435 10.3567979,-1.48202 0.251973,0 13.874396,2.35841 18.11842,2.72977 6.353307,2.61585 15.209126,11.40854 22.041431,17.13858 6.272625,5.26068 13.7452,27.71085 15.000676,26.84692 l 12.355883,11.64538 -4.171003,25.36299 c 0,0 -10.90848,-12.72719 -17.267389,-15.69076 -3.490688,-1.62688 -7.32858,-0.35945 -12.012613,-1.80762 -5.241484,-1.62051 -12.100227,-7.61592 -11.995058,-8.02909 7.85e-4,-0.009 -8.314407,-2.75577 -11.85187,-4.47796 -3.918971,-2.80559 -8.722409,-5.32736 -11.503323,-8.8907 -1.696258,-2.17349 -0.7280519,-5.38679 2.16363,-6.69954 1.842798,-0.83658 3.890953,-1.45607 5.913201,-1.37695 3.982339,0.1558 7.497165,1.51532 10.88028,3.08774 3.407009,1.58346 9.300737,6.29924 9.300737,6.29924 l 0.536199,-4.01645 c -0.0031,0.37306 -4.605473,-1.9668 -7.105119,-2.75302 -6.402659,0.68564 -10.265717,10.71326 -15.933611,12.59883 -0.86773,0.28867 -2.259878,-1.5555 -2.259878,-1.5555 0,0 -3.439052,2.59018 -5.0184388,1.83842 -1.4572381,-0.69361 -1.6509161,-3.39285 -1.2990117,-4.66414 -1.3808794,0.01 -4.2428523,0.50585 -4.3294568,-1.9191 -0.046312,-1.29659 1.7492365,-3.36469 2.40335,-5.13906 0.5238117,-1.42093 0.1052561,-3.341 1.207109,-4.37985 4.0444593,-3.81328 7.1156323,-10.22938 11.3259893,-13.92915 4.388516,-1.39771 14.660206,-1.7948 14.51082,-2.28705 -0.157408,0.37094 -5.350717,-4.36097 -7.910017,-7.3747 -1.016183,-1.19664 -5.029941,1.04642 -9.996542,-2.72385 -3.988482,0.22019 -10.9439135,0.69355 -13.73502411,-2.94677 -1.09756587,-1.43151 -1.52334746,-5.55954 0.27383121,-5.40459 z"
   id="path7610"
   sodipodi:nodetypes="sscscccssccsssscccscccsscccscss" />
<path
   style="fill:#1f384b;fill-opacity:1;stroke:#000000;stroke-width:0.381737px;stroke-linecap:butt;stroke-linejoin:miter;stroke-opacity:1"
   d="m 376.69542,137.4367 c 0,0 13.47375,38.43734 15.1226,59.55093 2.89111,37.02033 -15.1226,109.17672 -15.1226,109.17672 l -9.1617,75.58391 c 0,0 -105.45123,0.41158 -147.52092,-0.81856 8.72933,-46.28406 35.63726,-91.66579 34.52685,-132.21672 -26.64642,8.4486 -63.07017,14.77457 -81.88604,18.6603 -14.7143,3.03868 -12.25383,3.60712 -22.85276,0.43613 C 112.95323,249.2955 60.617352,196.22417 60.617352,196.22417 l 16.727044,-40.35814 84.814944,54.10065 77.48133,-39.26792 38.57461,-33.41553 z"
   id="path1182"
   sodipodi:nodetypes="csccccsccccccc" /><path
   style="fill:#ffffff;fill-opacity:1;stroke:#000000;stroke-width:0.0756883px;stroke-linecap:butt;stroke-linejoin:miter;stroke-opacity:1"
   d="m 183.11248,318.45113 -22.51847,9.57372 c -0.0332,0.0608 -21.35732,-4.73681 -21.35732,-4.73681 0,0 -15.80757,1.77582 -22.72931,3.56797 -2.99769,0.77614 -4.86538,4.31211 -7.59574,7.14212 -0.82384,2.3857 -2.71852,4.5196 -3.80728,6.0476 -0.40067,1.81123 0.34122,4.45155 0.20949,6.78225 -1.8133,1.3699 -2.67848,4.44316 0.0807,4.69488 2.45721,0.22418 6.67639,-1.30591 10.16103,-1.35152 4.90128,0.60479 10.30418,0.79424 15.20683,2.29145 3.284,0.75476 9.00059,4.21768 8.97664,4.26149 0.007,-0.17892 -7.31505,-0.0342 -10.60772,0.84746 -3.00241,0.34955 -5.85688,-0.52671 -8.21644,1.3625 -1.73665,1.19452 -3.98379,3.38283 -2.19111,5.78484 2.15126,-0.64426 6.84293,0.002 9.85101,1.56186 5.05206,-0.43911 10.06783,-2.05602 14.79037,-3.21292 7.69845,-1.88596 21.07129,-11.01861 21.07129,-11.01861 l 18.85828,-9.06366 z"
   id="path36257"
   sodipodi:nodetypes="cccscccscccccccsccc" /><path
   style="fill:#1f384b;fill-opacity:1;stroke:#000000;stroke-width:1.22157;stroke-linecap:butt;stroke-linejoin:miter;stroke-miterlimit:4;stroke-dasharray:none;stroke-opacity:1"
   d="m 370.77719,221.57451 c -6.60511,40.18333 -76.11986,95.55476 -76.11986,95.55476 l -118.76863,43.72845 -5.39857,-37.25017 92.3156,-42.64873 c 0,0 28.54479,-62.80909 53.44589,-85.29746 10.57164,-9.54733 25.11714,-24.21807 38.32987,-18.895 14.73122,5.93481 18.77171,29.13669 16.1957,44.80815 z"
   id="path5448"
   sodipodi:nodetypes="cccccccc" /><path
   style="fill:none;stroke:#686868;stroke-width:0.363303;stroke-linecap:butt;stroke-linejoin:miter;stroke-miterlimit:4;stroke-dasharray:none;stroke-opacity:1"
   d="m 105.31385,346.82798 7.69128,-5.34458 14.35746,-0.87222"
   id="path39626" /><path
   style="fill:#162734;fill-opacity:1;stroke:none;stroke-width:0.381737px;stroke-linecap:butt;stroke-linejoin:miter;stroke-opacity:1"
   d="m 175.8887,360.85772 c 0,0 -0.75389,-5.19679 -2.28992,-15.80047 7.00423,-7.95306 71.09257,-26.52565 97.43978,-34.67619 2.99815,-3.68209 -1.1096,-8.95589 -4.99368,-15.18349 9.3457,-0.7419 11.4674,7.74474 12.28176,10.05483 -0.75756,-4.93251 -4.11459,-10.52644 -10.88662,-18.9691 12.75051,2.34122 14.44462,6.84094 15.54131,9.44312 0.43821,-4.36091 -1.48545,-4.42498 -4.48598,-8.55924 3.64844,-0.86985 9.17708,4.36583 12.4459,4.42224 37.74111,0.65136 51.33389,-52.9475 62.83044,-86.75048 3.01432,-8.86285 1.87867,-18.77239 0.8098,-28.07258 -1.21273,-10.55193 -8.12058,-30.81205 -8.12058,-30.81205 l 28.58578,-13.10738 c 0,0 23.51313,53.20067 24.02432,71.77545 1.77233,64.39619 -15.91499,115.71411 -24.28428,184.76061 -5.82351,-0.16713 -107.00892,-3.12814 -130.55397,-3.81736 23.15182,-8.61007 55.45076,-27.71339 68.6884,-40.31048 14.47404,-22.37638 32.06772,-77.21881 32.06772,-77.21881 l -50.33155,49.09293 z"
   id="path28565"
   sodipodi:nodetypes="cccccccccssccscccccc" /><g
   id="g29317"
   transform="matrix(0.3817368,0,0,0.3817368,-53.440089,-21.531182)"><path
     d="m 801.24478,132.02458 c 0,0 -4.85758,72.28118 -15.77023,134.5299 -10.91267,62.24872 41.85875,115.8764 74.12435,145.1092 32.26559,29.2328 63.03751,46.0251 76.561,57.18517 a 72.400457,72.400457 0 0 1 19.16016,24.19172 c 0,0 19.9745,-21.31086 48.32784,-27.69651 28.3532,-6.38567 76.4187,-32.57339 90.7833,-68.46022 14.3646,-35.88683 8.6038,-117.37547 -74.6271,-190.77625 -83.23091,-73.40073 -195.35051,-85.82172 -195.35051,-85.82172 z"
     style="fill:#162734;fill-opacity:1;stroke:#263238;stroke-width:3.40228;stroke-linecap:round;stroke-linejoin:round"
     id="path150" /><path
     d="m 836.55426,139.73 c 0,0 -9.49847,62.90956 -8.13561,76.67224 1.36288,13.76267 13.90466,79.96559 16.75517,98.46038 2.85053,18.4948 34.05314,103.30869 42.14371,116.95168 8.09057,13.643 55.61836,-9.6668 55.61836,-9.6668 l 16.2891,56.65264 c 0,0 65.59251,-79.14535 80.90661,-98.30397 15.3141,-19.15864 25.6716,-41.26775 21.7751,-75.85157 -3.8966,-34.58382 -4.5078,-35.77717 -55.6824,-70.58322 C 955.04985,199.25534 879.17504,156.2124 865.39966,142.84655 851.62427,129.48071 839.83685,132.3461 836.55426,139.73 Z"
     style="fill:#ffffff;stroke-width:3.40228"
     id="path152" /><g
     clip-path="url(#freepik--clip-path-2--inject-6)"
     id="g158"
     transform="matrix(3.3641473,0.50793941,-0.50793941,3.3641473,-31.186217,-707.60061)"
     style="fill:#dedede;fill-opacity:1"><path
       d="m 362.11,246.26 c -2.63,-9.84 -2.88,-10.2 -19.28,-18.07 -5.17,-2.48 -11.1,-5.1 -16.93,-7.62 6.75,9.61 19.54,28.63 21.26,37.21 2.34,11.73 -10.56,23.07 -22.29,28.94 -3.52,1.76 -6,3.17 -7.79,4.27 2.57,2.55 11.07,-2.48 14.31,-4.56 l 21.24,-15.74 a 6.63,6.63 0 0 1 3.95,2.77 c 1.06,-1.78 1.93,-3.25 2.5,-4.24 3.6,-6.22 5.65,-13.12 3.03,-22.96 z"
       style="fill:#dedede;fill-opacity:1"
       id="path154" /><path
       d="m 362.11,246.26 c -2.63,-9.84 -2.88,-10.2 -19.28,-18.07 -5.17,-2.48 -11.1,-5.1 -16.93,-7.62 6.75,9.61 19.54,28.63 21.26,37.21 2.34,11.73 -10.56,23.07 -22.29,28.94 -3.52,1.76 -6,3.17 -7.79,4.27 2.57,2.55 11.07,-2.48 14.31,-4.56 l 21.24,-15.74 a 6.63,6.63 0 0 1 3.95,2.77 c 1.06,-1.78 1.93,-3.25 2.5,-4.24 3.6,-6.22 5.65,-13.12 3.03,-22.96 z"
       style="opacity:0.5;fill:#dedede;fill-opacity:1"
       id="path156" /></g><path
     d="m 836.55426,139.73 c 0,0 -9.49847,62.90956 -8.13561,76.67224 1.36288,13.76267 13.90466,79.96559 16.75517,98.46038 2.85053,18.4948 34.05314,103.30869 42.14371,116.95168 8.09057,13.643 55.61836,-9.6668 55.61836,-9.6668 l 16.2891,56.65264 c 0,0 65.59251,-79.14535 80.90661,-98.30397 15.3141,-19.15864 25.6716,-41.26775 21.7751,-75.85157 -3.8966,-34.58382 -4.5078,-35.77717 -55.6824,-70.58322 C 955.04985,199.25534 879.17504,156.2124 865.39966,142.84655 851.62427,129.48071 839.83685,132.3461 836.55426,139.73 Z"
     style="fill:none;stroke:#263238;stroke-width:3.40228;stroke-linecap:round;stroke-linejoin:round"
     id="path160"
     sodipodi:nodetypes="csssccssssc" /><path
     d="m 859.34728,250.38797 c 0,0 -8.20518,-20.40434 -25.69933,-24.18118"
     style="fill:none;stroke:#263238;stroke-width:10.2068px;stroke-linecap:round;stroke-linejoin:round"
     id="path178" /><path
     d="m 889.28604,260.6201 c 0,0 8.68234,-20.81368 64.35116,-7.79774"
     style="fill:none;stroke:#263238;stroke-width:10.2068px;stroke-linecap:round;stroke-linejoin:round"
     id="path176" /><path
     d="m 832.50203,232.17706 c 0,0 6.80456,12.28222 45.76063,20.10746 38.95607,7.82524 91.52125,5.57974 108.26046,1.08873 a 470.43285,470.43285 0 0 0 45.76068,-16.7392 c 0,0 10.0367,-1.08873 8.9139,7.82523 -1.1227,8.91397 -25.6531,13.40498 -25.6531,13.40498 0,0 -5.5798,34.56713 -15.65053,44.63787 -10.07074,10.07074 -60.25433,16.80725 -81.45052,13.40497 -21.19618,-3.40227 -27.89867,-34.60116 -31.2329,-39.05814 -3.33423,-4.45698 -6.80456,-11.15947 -13.40497,-11.15947 -6.60042,0 -6.80456,24.56444 -5.57974,36.84666 1.22482,12.28222 2.2455,5.57974 -8.91396,5.57974 -11.15947,0 -29.02143,-12.28222 -31.26693,-37.96941 -2.2455,-25.6872 -7.79122,-36.84667 4.45698,-37.96942 z"
     style="fill:#8dcded;fill-opacity:0.734345;stroke:#263238;stroke-width:3.40228;stroke-linecap:round;stroke-linejoin:round"
     id="path164" /><path
     d="m 890.47683,270.1805 c 0,0 4.79721,28.68119 17.93,33.47841 13.13279,4.79721 15.54841,4.76318 35.86001,-11.97602 20.31159,-16.7392 46.64521,-10.7512 46.64521,-10.7512 0,0 14.35765,-15.5484 14.35765,-21.50239 0,-5.95398 -4.7973,-3.60641 -4.7973,-3.60641 0,0 -9.01598,5.85192 -49.09481,7.75719 -14.32358,0.68046 -62.09155,-2.95998 -62.09155,-2.95998 z"
     style="fill:#e5e5e5;fill-opacity:0.462745;stroke-width:3.40228"
     id="path166" /><path
     d="m 867.44342,254.66612 0.37425,11.83992 a 16.773226,16.773226 0 0 1 -12.96268,14.4937 45.964764,45.964764 0 0 1 -24.0541,0.37425 c 0,0 -4.59307,-33.58047 -4.59307,-37.42505 a 7.723169,7.723169 0 0 1 1.53102,-5.34157 c 0,0 11.83993,13.54106 39.70458,16.05875 z"
     style="fill:#e5e5e5;fill-opacity:0.462998;stroke-width:3.40228"
     id="path168" /><path
     d="m 873.32506,266.98907 c 0,0 -15.86649,52.89867 -22.44242,66.59819 -6.57594,13.6995 36.34707,13.36742 49.89831,13.17692"
     style="fill:#ffffff;stroke:#263238;stroke-width:3.40228;stroke-linecap:round;stroke-linejoin:round"
     id="path172" /><path
     d="m 942.93212,422.07382 c 22.59959,-9.83444 55.21846,-26.62378 76.53328,-38.9986"
     style="fill:none;stroke:#263238;stroke-width:3.52931;stroke-linecap:round;stroke-linejoin:round"
     id="path174"
     sodipodi:nodetypes="cc" /><path
     style="fill:#263238;fill-opacity:1;stroke:#000000;stroke-width:1px;stroke-linecap:butt;stroke-linejoin:miter;stroke-opacity:1"
     d="m 836.55426,139.73 c -16.04678,13.60966 -34.86501,42.87047 -38.26777,58.04074 14.10365,-2.28561 37.9879,-14.8556 38.26777,-14.54074 0,0 -18.80395,10.74932 -21,20.5 17.38178,-4.62739 33.44194,-6.11764 33.44194,-6.11764 -8.25954,2.46791 -12.65719,7.59087 -13.37436,15.24416 0,0 25.45148,-6.26447 34.53382,-6.39949 9.08233,-0.13502 14.93631,4.3904 22.3986,3.27297 6.93066,-1.03782 19,-9 19,-9 l 94.00004,-8.5 32,-29.5 -47.50004,-57 -99,7.5 c 0,0 -39.09428,13.43404 -54.5,26.5 z"
     id="path9695"
     sodipodi:nodetypes="scccccsscccccs" /><path
     d="m 801.24478,132.02458 c 0,0 90.00182,72.08329 151.1424,110.38976 61.14062,38.30647 137.75552,95.36215 138.13102,133.44012 0.3754,38.07795 -46.4772,66.03161 -64.8435,76.91868 -18.3662,10.88709 -56.08035,38.70654 -56.08035,38.70654 0,0 87.07115,-32.47899 118.47415,-49.03637 31.4029,-16.55739 47.2261,-50.71001 45.1075,-116.44025 -2.1186,-65.73023 5.1388,-165.07255 -22.2449,-225.49924 C 1083.5474,40.07714 991.28663,56.564062 923.0675,75.166971 A 426.88371,426.88371 0 0 0 801.24478,132.02458 Z"
     style="fill:#1f384b;fill-opacity:1;stroke-width:3.40228"
     id="path182" /><g
     clip-path="url(#freepik--clip-path-3--inject-6)"
     id="g186"
     transform="matrix(3.3641473,0.50793939,-0.50793939,3.3641473,-23.630959,-704.08568)"
     style="fill:#0a1218;fill-opacity:1;fill-rule:nonzero;filter:url(#filter20587)"><path
       d="m 303.76,210.08 c 0,0 18.37,10.92 33.24,18.77 14.87,7.85 33.23,19.55 37.54,26.2 4.31,6.65 3.12,10.55 -0.79,17.59 -3.91,7.04 -9,10.95 -3.52,11.34 5.48,0.39 10.95,-10.17 10.95,-18.77 0,-8.6 -1.56,-17.2 -3.91,-31.67 -2.35,-14.47 -9,-43 -15.64,-50 -6.64,-7 -18.37,-5.86 -30.49,2.35 -12.12,8.21 11.33,12.12 9,18.38 -1.67,4.43 -11.91,0.09 -14.68,-0.7 -9.34,-2.66 -13.68,-2.26 -22.75,1.48 -2.77,1.08 -0.8,3.95 1.05,5.03 z"
       style="opacity:0.3;fill:#0a1218;fill-opacity:1;fill-rule:nonzero"
       id="path184" /></g><path
     d="m 801.24478,132.02458 c 0,0 90.00182,72.08329 151.1424,110.38976 61.14062,38.30647 137.75552,95.36215 138.13102,133.44012 0.3754,38.07795 -46.4772,66.03161 -64.8435,76.91868 -18.3662,10.88709 -56.08035,38.70654 -56.08035,38.70654 0,0 87.07115,-32.47899 118.47415,-49.03637 31.4029,-16.55739 47.2261,-50.71001 45.1075,-116.44025 -2.1186,-65.73023 5.1388,-165.07255 -22.2449,-225.49924 C 1083.5474,40.07714 991.28663,56.564062 923.0675,75.166971 A 426.88371,426.88371 0 0 0 801.24478,132.02458 Z"
     style="fill:none;stroke:#263238;stroke-width:3.40228;stroke-linecap:round;stroke-linejoin:round"
     id="path188" /></g><path
   style="fill:#162734;fill-opacity:1;stroke:none;stroke-width:0.381737px;stroke-linecap:butt;stroke-linejoin:miter;stroke-opacity:1"
   d="m 254.53965,248.71298 c 7.96067,-9.03322 20.25036,-35.68648 18.67588,-52.31198 -19.04589,10.47324 -58.94624,35.13064 -112.36377,45.38775 C 103.73532,222.2262 60.617352,196.22417 60.617352,196.22417 c 0,0 71.352258,78.78015 100.496098,73.55612 36.39074,-6.52302 62.89117,-7.52399 93.4262,-21.06731 z"
   id="path34195"
   sodipodi:nodetypes="ccccsc" /><path
   style="fill:none;stroke:#686868;stroke-width:0.363303;stroke-linecap:butt;stroke-linejoin:miter;stroke-miterlimit:4;stroke-dasharray:none;stroke-opacity:1"
   d="m 108.91164,333.99813 18.92959,-2.90232"
   id="path39628"
   sodipodi:nodetypes="cc" /><path
   style="fill:#707070;fill-opacity:0.12334;stroke:none;stroke-width:0.0832704px;stroke-linecap:butt;stroke-linejoin:miter;stroke-opacity:1"
   d="m 118.72945,365.31777 c -0.52034,-0.78015 -0.29235,-2.36521 0.36488,-2.97538 1.20983,-1.12327 3.19922,-0.23526 4.54391,0.63476 0.91963,0.59497 2.18471,2.93904 2.02484,2.88644 -0.0511,-0.6974 -5.01467,-1.1181 -6.93363,-0.54582 z"
   id="path39630"
   sodipodi:nodetypes="ccccc" /><path
   style="fill:#676767;fill-opacity:0.185958;stroke:none;stroke-width:0.0756883px;stroke-linecap:butt;stroke-linejoin:miter;stroke-opacity:1"
   d="m 105.09826,346.99957 c 0.33821,0.36775 0.51804,1.61192 0.60776,1.93794 -0.0846,0.71994 -0.67425,2.83531 -1.325,2.27183 -1.36843,-0.28902 -0.5793,-3.65247 0.71724,-4.20977 z"
   id="path39632"
   sodipodi:nodetypes="cccc" /><path
   style="fill:#dedede;fill-opacity:1;stroke:none;stroke-width:0.0756883px;stroke-linecap:butt;stroke-linejoin:miter;stroke-opacity:1"
   d="m 128.57473,366.28094 c -1.65563,-3.25838 5.44302,-5.03519 8.7289,-6.63563 3.45868,-1.68458 11.16376,-2.92797 11.16376,-2.92797 0,0 -6.46635,-3.6717 -10.14058,-5.38617 -3.10369,-1.4482 -7.30152,-2.79886 -10.18845,-3.92486 -4.4477,-1.73479 -9.48651,-1.17212 -14.1611,-2.14144 -1.96019,-0.40645 -6.4788,0.0451 -6.4788,0.0451 0,0 4.04297,-3.13629 6.31438,-3.87559 6.37102,-0.38705 13.79225,-0.55877 13.54975,-0.82315 l 2.059,-0.67815 c 0,0 -3.72681,-2.40318 -5.83895,-2.9381 -5.14858,-1.30392 -15.92626,-0.47626 -15.92626,-0.47626 l 1.25526,-2.52054 8.3747,-1.28405 10.55489,-1.61828 1.49513,-1.35255 -12.82898,-2.88724 20.12868,-3.25975 c 6.42565,-1.5215 15.97197,2.9524 23.95795,4.42859 l 13.5322,-5.75322 -0.50447,12.7589 -0.63028,12.90714 c 0,0 -14.51719,7.70194 -20.03229,11.06039 -7.24526,4.41205 -16.41077,5.74332 -24.38444,7.28288 z"
   id="path43833"
   sodipodi:nodetypes="cccccccccccccccccccccccc" /><path
   style="fill:none;stroke:#000000;stroke-width:0.114521;stroke-linecap:butt;stroke-linejoin:miter;stroke-miterlimit:4;stroke-dasharray:none;stroke-opacity:1"
   d="m 105.5048,340.34313 2.59806,-0.1012 1.28217,0.40489"
   id="path53880" /><path
   style="fill:none;stroke:#000000;stroke-width:0.0763473;stroke-linecap:butt;stroke-linejoin:miter;stroke-miterlimit:4;stroke-dasharray:none;stroke-opacity:1"
   d="m 106.44955,339.4996 2.69928,0.23619 1.55209,0.64109"
   id="path53882" /><path
   style="fill:none;stroke:#000000;stroke-width:0.0381737;stroke-linecap:butt;stroke-linejoin:miter;stroke-miterlimit:4;stroke-dasharray:none;stroke-opacity:1"
   d="m 115.45843,327.45403 1.18092,1.1472 1.07972,1.7208"
   id="path53884" /><path
   style="fill:none;stroke:#000000;stroke-width:0.0381737;stroke-linecap:butt;stroke-linejoin:miter;stroke-miterlimit:4;stroke-dasharray:none;stroke-opacity:1"
   d="m 116.43692,327.11664 1.88949,2.8005"
   id="path53886" /><path
   style="fill:none;stroke:#000000;stroke-width:0.0381737;stroke-linecap:butt;stroke-linejoin:miter;stroke-miterlimit:4;stroke-dasharray:none;stroke-opacity:1"
   d="m 113.24931,342.09534 0.95435,2.57672 -0.47718,2.38586"
   id="path53888" /><path
   style="fill:none;stroke:#000000;stroke-width:0.0381737;stroke-linecap:butt;stroke-linejoin:miter;stroke-miterlimit:4;stroke-dasharray:none;stroke-opacity:1"
   d="m 114.82397,342.8111 0.42947,2.14726 -0.23859,1.81325"
   id="path53890" /><path
   style="fill:#1f384b;fill-opacity:1;stroke:none;stroke-width:0.41998px;stroke-linecap:butt;stroke-linejoin:miter;stroke-opacity:1"
   d="m 367.52423,385.93106 -17.22364,51.34848 c 0,0 -7.67864,21.49771 -7.87378,42.96391 -0.1305,14.35693 -8.52027,22.64654 -12.06,35.69232 -0.29555,8.74109 -8.53876,28.3513 -8.81119,43.17055 -0.14718,8.00624 2.61708,15.69995 3.89853,23.55645 1.35051,8.28012 0.43502,17.17899 1.56521,25.50732 1.80192,13.2783 6.86755,39.35618 6.86755,39.35618 l -35.49935,26.33861 c 2.95777,-7.16103 -13.96138,-20.30794 -23.27987,-37.72247 -4.95737,-13.58383 -9.58101,-32.77148 -21.86618,-49.7229 -3.78494,-9.60063 -6.99096,-24.86064 -9.18824,-35.16061 -4.37817,-20.52315 -2.54101,-49.28807 -2.54101,-49.28807 l 4.96226,-30.95938 c -17.94962,28.79986 -43.57529,33.42888 -71.09973,41.05893 l -6.00637,38.64995 c 0,0 -6.16387,30.19887 -8.38809,45.57387 0.5547,3.60206 2.57117,9.74222 2.01357,13.34365 -1.05367,6.80543 -12.31657,8.4799 -13.57583,12.70385 -11.56491,2.74635 -34.48451,8.18607 -34.48451,8.18607 0,0 -3.78245,-16.90921 -4.25174,-25.59225 -0.4522,-8.36681 1.88452,-16.73159 1.40778,-25.09645 -0.74763,-13.1188 -5.03267,-25.61633 -6.65188,-38.61943 -2.13241,-17.12409 -4.01429,-51.72499 -4.01429,-51.72499 0,0 2.39423,-18.65113 7.25255,-25.41443 26.21688,-25.21028 91.99294,-56.83592 91.99294,-56.83592 l 24.09449,-27.78234 z"
   id="path1098"
   sodipodi:nodetypes="ccsccccccccccccccccccccccccc" /><path
   style="fill:#162734;fill-opacity:1;stroke:none;stroke-width:0.41998px;stroke-linecap:butt;stroke-linejoin:miter;stroke-opacity:1"
   d="m 316.13724,660.69554 17.74967,-13.16927 c -0.73848,0.25109 -8.41713,-38.75197 -8.00309,-61.52029 -1.16425,-7.8832 -4.51627,-17.76746 -4.3282,-26.89966 1.27708,-13.6305 12.3303,-35.97771 15.73508,-53.64389 2.53331,-13.14442 5.47309,-19.36142 12.08548,-44.67676 9.9015,-28.15141 12.94623,-45.17411 18.14805,-74.85461 l -48.58215,-2.34482 -79.10163,-3.54668 c 0,0 19.18447,57.65539 28.49697,79.20926 11.92497,27.60038 2.11432,52.82674 4.38183,77.0266 2.95672,31.5556 21.12329,74.32464 21.12329,74.32464 z"
   id="path11805"
   sodipodi:nodetypes="ccccsccccsscc" /><path
   style="fill:#162734;fill-opacity:1;stroke:none;stroke-width:0.41998px;stroke-linecap:butt;stroke-linejoin:miter;stroke-opacity:1"
   d="m 162.9939,609.63785 c 0.80815,-3.08535 -2.30451,-13.04217 -2.01357,-13.34365 6.57923,-26.28123 10.08787,-59.27305 14.39446,-84.22382 12.9178,7.95121 90.12686,-28.60324 78.3523,-78.48746 11.0018,-25.40229 1.09047,-51.55764 -13.12201,-52.14413 0,0 -64.611,62.05604 -89.81598,99.44537 -21.67685,37.8059 -15.53849,145.03248 -16.42878,145.03248 0,0 23.80616,-4.9302 28.63358,-16.27879 z"
   id="path12396"
   sodipodi:nodetypes="cccccccc" /><path
   style="fill:#0e1820;fill-opacity:1;stroke:#000000;stroke-width:0.41998px;stroke-linecap:butt;stroke-linejoin:miter;stroke-opacity:1"
   d="m 298.38756,673.86488 c 0.18548,14.99329 0.83765,26.22662 -2.17172,40.53606 -1.54886,7.36497 -9.12656,16.82648 -7.9065,24.28131 7.35259,44.92624 31.56678,39.38456 41.97135,9.8022 3.01342,-8.56781 -0.89908,-18.68794 0,-27.93622 1.78917,-18.40445 12.10767,-35.62703 10.66152,-54.07553 -0.5406,-6.89657 -3.27715,-12.31212 -7.0553,-18.94643 -13.25779,9.83652 -24.56106,18.22296 -35.49935,26.33861 z"
   id="path18945"
   sodipodi:nodetypes="cssssccc" /><path
   style="fill:#0e1820;fill-opacity:1;stroke:#000000;stroke-width:0.41998px;stroke-linecap:butt;stroke-linejoin:miter;stroke-opacity:1"
   d="m 114.93356,630.52777 c -3.17766,2.14704 -12.65596,25.26706 -30.812767,35.94493 -5.319194,3.06824 -13.412994,-2.47194 -17.544292,2.61393 -6.394827,5.46087 -16.348653,13.72002 -1.793954,24.45284 16.72886,6.13067 26.321903,5.49686 39.581653,3.64677 13.40443,-5.73271 28.50548,-12.98319 44.53551,-20.5846 5.02776,-18.42742 4.71306,-32.80176 0.51836,-54.25994 -12.86665,3.05478 -18.77739,4.45789 -34.48451,8.18607 z"
   id="path19735"
   sodipodi:nodetypes="cccccccc" /><path
   style="fill:none;stroke:#0a1721;stroke-width:1.46993;stroke-linecap:butt;stroke-linejoin:miter;stroke-miterlimit:4;stroke-dasharray:none;stroke-opacity:1"
   d="m 246.47452,471.01145 c 0,0 5.59284,-12.58526 7.7618,-19.21342 1.85398,-5.66555 1.8499,-24.68203 1.8499,-24.68203"
   id="path22554"
   sodipodi:nodetypes="ccc" /><path
   style="fill:#000000;fill-opacity:0.878558;stroke:none;stroke-width:0.381737px;stroke-linecap:butt;stroke-linejoin:miter;stroke-opacity:1"
   d="m 64.782547,693.53947 3.134683,-2.1541 34.95576,0.80978 47.46468,-21.4093 -1.43796,5.81579 c 0,0 -29.14115,15.06433 -44.53551,20.5846 -13.015076,4.66708 -39.55647,-2.21288 -39.581653,-3.64677 z"
   id="path24838"
   sodipodi:nodetypes="ccccccc" /><path
   style="fill:none;fill-opacity:0.878558;stroke:#7e7e7e;stroke-width:0.381737px;stroke-linecap:butt;stroke-linejoin:miter;stroke-opacity:1"
   d="m 301.1356,729.31033 18.76004,1.75455 c -5.98958,-2.45808 -11.96402,-4.93958 -16.19571,-10.12235 5.74321,0.32178 10.72231,-1.26673 14.84607,-4.99368 -5.04714,-3.25541 -11.42923,-6.16854 -13.2265,-10.25726 6.2719,-1.22222 10.84114,-4.93287 16.06075,-7.69299 l -15.65585,-0.67479 c 2.95745,5.0291 8.25806,7.076 13.09153,9.71742 -4.41165,4.12625 -9.40144,6.57584 -14.71111,8.09787 4.22118,4.36995 8.65147,7.84079 13.76636,8.36779 -5.0535,2.91893 -11.00831,4.14783 -16.73558,5.80344 z"
   id="path25676"
   sodipodi:nodetypes="ccccccccccc" /><path
   style="fill:none;stroke:#818181;stroke-width:0.381737px;stroke-linecap:butt;stroke-linejoin:miter;stroke-opacity:1"
   d="m 82.704893,667.08139 9.067285,4.90286 c -2.090748,-2.78217 -1.731417,-6.81267 -1.781761,-9.5948 3.935959,1.69485 7.550948,1.69733 10.993073,0.78839 -2.551627,-2.79332 -3.197568,-5.72275 -3.911864,-8.64736 4.247174,0.0273 8.471954,-0.005 12.321864,-0.99107 -2.8266,-1.98085 -3.91353,-4.67341 -4.78978,-7.45214 l 7.41311,2.85179 c -3.38255,0.45363 -6.56721,1.69881 -10.23038,1.03 -0.16999,2.85879 1.34671,5.83016 3.17849,8.8224 -3.40458,0.42813 -6.809166,0.44003 -10.21375,-0.6983 -0.776881,2.5866 0.441507,5.75715 1.441083,8.86366 -4.340304,0.0934 -8.878571,0.12071 -13.48737,0.12457 z"
   id="path25777"
   sodipodi:nodetypes="ccccccccccccc" /></svg>
