<?xml version="1.0" encoding="UTF-8" standalone="no"?>
<svg
   version="1.1"
   id="Layer_1"
   x="0px"
   y="0px"
   viewBox="0 0 510.24269 473.70714"
   enable-background="new 0 0 1345.672 1693.834"
   xml:space="preserve"
   sodipodi:docname="programmer-blob.svg"
   inkscape:version="1.1.1 (3bf5ae0d25, 2021-09-20)"
   width="510.24268"
   height="473.70715"
   xmlns:inkscape="http://www.inkscape.org/namespaces/inkscape"
   xmlns:sodipodi="http://sodipodi.sourceforge.net/DTD/sodipodi-0.dtd"
   xmlns="http://www.w3.org/2000/svg"
   xmlns:svg="http://www.w3.org/2000/svg"><defs
   id="defs7"><linearGradient
     id="linearGradient11732"
     inkscape:swatch="solid"><stop
       style="stop-color:#2a4c66;stop-opacity:1;"
       offset="0"
       id="stop11730" /></linearGradient><radialGradient
     id="euOPzsRE7HX272-fill"
     cx="0"
     cy="0"
     r="180.47"
     spreadMethod="pad"
     gradientUnits="userSpaceOnUse"
     gradientTransform="rotate(-13.979991,1678.4213,-2321.2811)"><stop
       id="euOPzsRE7HX272-fill-0"
       offset="0%"
       stop-color="#3cfffb" /><stop
       id="euOPzsRE7HX272-fill-1"
       offset="60%"
       stop-color="#76afff" /><stop
       id="euOPzsRE7HX272-fill-2"
       offset="100%"
       stop-color="#345ac2" /></radialGradient><radialGradient
     id="euOPzsRE7HX281-fill"
     cx="0"
     cy="0"
     r="180.47"
     spreadMethod="pad"
     gradientUnits="userSpaceOnUse"
     gradientTransform="rotate(-13.979991,1678.4213,-2321.2811)"><stop
       id="euOPzsRE7HX281-fill-0"
       offset="0%"
       stop-color="#3cfffb" /><stop
       id="euOPzsRE7HX281-fill-1"
       offset="23%"
       stop-color="#76afff" /><stop
       id="euOPzsRE7HX281-fill-2"
       offset="100%"
       stop-color="#345ac2" /></radialGradient><linearGradient
     id="euOPzsRE7HX284-fill"
     x1="604.81635"
     y1="405.63324"
     x2="555.63446"
     y2="359.98969"
     spreadMethod="pad"
     gradientUnits="userSpaceOnUse"
     gradientTransform="scale(1.0253229,0.97530253)"><stop
       id="euOPzsRE7HX284-fill-0"
       offset="0%"
       stop-color="#1e177b" /><stop
       id="euOPzsRE7HX284-fill-1"
       offset="100%"
       stop-color="#2b2390" /></linearGradient><radialGradient
     id="euOPzsRE7HX288-fill"
     cx="522.22302"
     cy="288.34479"
     r="26.633335"
     spreadMethod="pad"
     gradientUnits="userSpaceOnUse"
     gradientTransform="scale(1.0267975,0.97390188)"
     fx="522.22302"
     fy="288.34479"><stop
       id="euOPzsRE7HX288-fill-0"
       offset="35%"
       stop-color="#433c8f" /><stop
       id="euOPzsRE7HX288-fill-1"
       offset="70%"
       stop-color="#2b2390" /></radialGradient><radialGradient
     id="euOPzsRE7HX289-fill"
     cx="399.8877"
     cy="363.62619"
     r="35.281273"
     spreadMethod="pad"
     gradientUnits="userSpaceOnUse"
     gradientTransform="scale(1.283915,0.77886774)"
     fx="399.8877"
     fy="363.62619"><stop
       id="euOPzsRE7HX289-fill-0"
       offset="35%"
       stop-color="#433c8f" /><stop
       id="euOPzsRE7HX289-fill-1"
       offset="70%"
       stop-color="#2b2390" /></radialGradient><radialGradient
     id="euOPzsRE7HX290-fill"
     cx="398.88293"
     cy="363.74808"
     r="41.856701"
     spreadMethod="pad"
     gradientUnits="userSpaceOnUse"
     gradientTransform="scale(1.2674265,0.78900037)"
     fx="398.88293"
     fy="363.74808"><stop
       id="euOPzsRE7HX290-fill-0"
       offset="35%"
       stop-color="#433c8f" /><stop
       id="euOPzsRE7HX290-fill-1"
       offset="70%"
       stop-color="#2b2390" /></radialGradient><radialGradient
     id="euOPzsRE7HX291-fill"
     cx="325.73859"
     cy="467.60251"
     r="35.706543"
     spreadMethod="pad"
     gradientUnits="userSpaceOnUse"
     gradientTransform="scale(1.53976,0.64945187)"
     fx="325.73859"
     fy="467.60251"><stop
       id="euOPzsRE7HX291-fill-0"
       offset="35%"
       stop-color="#433c8f" /><stop
       id="euOPzsRE7HX291-fill-1"
       offset="70%"
       stop-color="#2b2390" /></radialGradient><radialGradient
     id="euOPzsRE7HX292-fill"
     cx="375.466"
     cy="457.57312"
     r="38.309643"
     spreadMethod="pad"
     gradientUnits="userSpaceOnUse"
     gradientTransform="scale(1.3993497,0.71461763)"
     fx="375.466"
     fy="457.57312"><stop
       id="euOPzsRE7HX292-fill-0"
       offset="35%"
       stop-color="#433c8f" /><stop
       id="euOPzsRE7HX292-fill-1"
       offset="70%"
       stop-color="#2b2390" /></radialGradient><radialGradient
     id="euOPzsRE7HX293-fill"
     cx="716.81763"
     cy="220.30138"
     r="26.565681"
     spreadMethod="pad"
     gradientUnits="userSpaceOnUse"
     gradientTransform="scale(0.75774431,1.3197064)"
     fx="716.81763"
     fy="220.30138"><stop
       id="euOPzsRE7HX293-fill-0"
       offset="0%"
       stop-color="#3f378f" /><stop
       id="euOPzsRE7HX293-fill-1"
       offset="100%"
       stop-color="#2b2390" /></radialGradient><linearGradient
     id="euOPzsRE7HX340-fill"
     x1="858.06128"
     y1="374.45016"
     x2="828.72827"
     y2="335.8186"
     spreadMethod="pad"
     gradientUnits="userSpaceOnUse"
     gradientTransform="scale(0.96680894,1.0343305)"><stop
       id="euOPzsRE7HX340-fill-0"
       offset="0%"
       stop-color="#89bcff" /><stop
       id="euOPzsRE7HX340-fill-1"
       offset="100%"
       stop-color="#3cfffb" /></linearGradient><radialGradient
     id="euOPzsRE7HX342-fill"
     cx="0"
     cy="0"
     r="45.25"
     spreadMethod="pad"
     gradientUnits="userSpaceOnUse"><stop
       id="euOPzsRE7HX342-fill-0"
       offset="0%"
       stop-color="rgba(255,254,250,0.58)" /><stop
       id="euOPzsRE7HX342-fill-1"
       offset="39%"
       stop-color="rgba(255,254,250,0.27)" /><stop
       id="euOPzsRE7HX342-fill-2"
       offset="100%"
       stop-color="rgba(255,254,250,0)" /></radialGradient><radialGradient
     id="euOPzsRE7HX353-fill"
     cx="0"
     cy="0"
     r="58.470001"
     spreadMethod="pad"
     gradientUnits="userSpaceOnUse"
     gradientTransform="translate(859.71,356.85)"><stop
       id="euOPzsRE7HX353-fill-0"
       offset="0%"
       stop-color="rgba(79,67,148,0)" /><stop
       id="euOPzsRE7HX353-fill-1"
       offset="99%"
       stop-color="#494394" /></radialGradient><linearGradient
     id="euOPzsRE7HX372-fill"
     x1="561.96698"
     y1="648.03979"
     x2="483.65607"
     y2="710.47675"
     spreadMethod="pad"
     gradientUnits="userSpaceOnUse"
     gradientTransform="scale(1.4452645,0.69191486)"><stop
       id="euOPzsRE7HX372-fill-0"
       offset="0%"
       stop-color="#1e177b" /><stop
       id="euOPzsRE7HX372-fill-1"
       offset="100%"
       stop-color="#362ea3" /></linearGradient><linearGradient
     id="euOPzsRE7HX373-fill"
     x1="455.76175"
     y1="789.7478"
     x2="450.90677"
     y2="702.7099"
     spreadMethod="pad"
     gradientUnits="userSpaceOnUse"
     gradientTransform="scale(1.6050802,0.62302182)"><stop
       id="euOPzsRE7HX373-fill-0"
       offset="0%"
       stop-color="#89bcff" /><stop
       id="euOPzsRE7HX373-fill-1"
       offset="100%"
       stop-color="#73d0fe" /></linearGradient><radialGradient
     id="euOPzsRE7HX123-fill"
     cx="601.04547"
     cy="494.88254"
     r="178.82401"
     spreadMethod="pad"
     gradientUnits="userSpaceOnUse"
     gradientTransform="scale(1.0485435,0.95370388)"
     fx="601.04547"
     fy="494.88254"><stop
       id="euOPzsRE7HX123-fill-0"
       offset="0%"
       stop-color="#3cfffb" /><stop
       id="euOPzsRE7HX123-fill-1"
       offset="38%"
       stop-color="#76afff" /><stop
       id="euOPzsRE7HX123-fill-2"
       offset="100%"
       stop-color="#345ac2" /></radialGradient><linearGradient
     id="euOPzsRE7HX124-fill"
     x1="660.31134"
     y1="655.09174"
     x2="708.83502"
     y2="645.06586"
     spreadMethod="pad"
     gradientUnits="userSpaceOnUse"
     gradientTransform="scale(1.1121654,0.89914685)"><stop
       id="euOPzsRE7HX124-fill-0"
       offset="0%"
       stop-color="#345ac2" /><stop
       id="euOPzsRE7HX124-fill-1"
       offset="100%"
       stop-color="#660aed" /></linearGradient><radialGradient
     id="euOPzsRE7HX125-fill"
     cx="855.09021"
     cy="402.69934"
     r="61.813137"
     spreadMethod="pad"
     gradientUnits="userSpaceOnUse"
     gradientTransform="scale(0.85002499,1.176436)"
     fx="855.09021"
     fy="402.69934"><stop
       id="euOPzsRE7HX125-fill-0"
       offset="0%"
       stop-color="#310f59" /><stop
       id="euOPzsRE7HX125-fill-1"
       offset="100%"
       stop-color="#345ac2" /></radialGradient><radialGradient
     id="euOPzsRE7HX134-fill"
     cx="843.31567"
     cy="422.61798"
     r="241.01718"
     spreadMethod="pad"
     gradientUnits="userSpaceOnUse"
     gradientTransform="scale(0.74836191,1.3362519)"
     fx="843.31567"
     fy="422.61798"><stop
       id="euOPzsRE7HX134-fill-0"
       offset="0%"
       stop-color="#3cfffb" /><stop
       id="euOPzsRE7HX134-fill-1"
       offset="38%"
       stop-color="#76afff" /><stop
       id="euOPzsRE7HX134-fill-2"
       offset="100%"
       stop-color="#345ac2" /></radialGradient><clipPath
     id="euOPzsRE7HX151"><circle
       r="47.560001"
       transform="translate(676.09,609.71)"
       fill="none"
       id="circle600"
       cx="0"
       cy="0" /></clipPath><clipPath
     id="euOPzsRE7HX160"><polygon
       points="827.7,470.94 889.23,459.96 876.72,492 811.6,483.25 "
       fill="none"
       id="polygon616" /></clipPath><radialGradient
     id="euOPzsRE7HX159-fill"
     cx="0"
     cy="0"
     r="85.269997"
     spreadMethod="pad"
     gradientUnits="userSpaceOnUse"
     gradientTransform="translate(887.06,460.21)"><stop
       id="euOPzsRE7HX159-fill-0"
       offset="0%"
       stop-color="#1e177b" /><stop
       id="euOPzsRE7HX159-fill-1"
       offset="100%"
       stop-color="#5d3fb9" /></radialGradient><radialGradient
     id="euOPzsRE7HX164-fill"
     cx="0"
     cy="0"
     r="165.34"
     spreadMethod="pad"
     gradientUnits="userSpaceOnUse"
     gradientTransform="translate(724.3,493.4)"><stop
       id="euOPzsRE7HX164-fill-0"
       offset="0%"
       stop-color="#3cfffb" /><stop
       id="euOPzsRE7HX164-fill-1"
       offset="38%"
       stop-color="#76afff" /><stop
       id="euOPzsRE7HX164-fill-2"
       offset="100%"
       stop-color="#345ac2" /></radialGradient><linearGradient
     id="euOPzsRE7HX165-fill"
     x1="835.04999"
     y1="538.08002"
     x2="875.39001"
     y2="562.59003"
     spreadMethod="pad"
     gradientUnits="userSpaceOnUse"><stop
       id="euOPzsRE7HX165-fill-0"
       offset="0%"
       stop-color="#345ac2" /><stop
       id="euOPzsRE7HX165-fill-1"
       offset="100%"
       stop-color="#5d3fb9" /></linearGradient><radialGradient
     id="euOPzsRE7HX169-fill"
     cx="0"
     cy="0"
     r="62.889999"
     spreadMethod="pad"
     gradientUnits="userSpaceOnUse"
     gradientTransform="rotate(12.77001,-123.58132,30.778536)"><stop
       id="euOPzsRE7HX169-fill-0"
       offset="0%"
       stop-color="#1e177b" /><stop
       id="euOPzsRE7HX169-fill-1"
       offset="100%"
       stop-color="#5d3fb9" /></radialGradient><radialGradient
     id="euOPzsRE7HX171-fill"
     cx="0"
     cy="0"
     r="35.450001"
     spreadMethod="pad"
     gradientUnits="userSpaceOnUse"
     gradientTransform="rotate(12.77001,-51.727255,19.824178)"><stop
       id="euOPzsRE7HX171-fill-0"
       offset="0%"
       stop-color="#1e177b" /><stop
       id="euOPzsRE7HX171-fill-1"
       offset="100%"
       stop-color="#5d3fb9" /></radialGradient><radialGradient
     id="euOPzsRE7HX183-fill"
     cx="0"
     cy="0"
     r="165.34"
     spreadMethod="pad"
     gradientUnits="userSpaceOnUse"
     gradientTransform="translate(724.3,493.4)"><stop
       id="euOPzsRE7HX183-fill-0"
       offset="0%"
       stop-color="#3cfffb" /><stop
       id="euOPzsRE7HX183-fill-1"
       offset="38%"
       stop-color="#76afff" /><stop
       id="euOPzsRE7HX183-fill-2"
       offset="100%"
       stop-color="#345ac2" /></radialGradient><clipPath
     id="euOPzsRE7HX202"><circle
       r="47.560001"
       transform="translate(777.91,542.85)"
       fill="none"
       id="circle691"
       cx="0"
       cy="0" /></clipPath><style
     type="text/css"
     id="style12398">
    .fil0 {fill:black}
  </style><clipPath
     id="freepik--clip-path-2--inject-6"><path
       d="m 289.37,208.18 c 0,0 0,18.7 1,22.64 1,3.94 7.55,22.63 9.19,27.88 1.64,5.25 14.43,28.53 17.38,32.14 2.95,3.61 15.74,-5.25 15.74,-5.25 l 7.22,15.75 c 0,0 15.59,-25.88 19.2,-32.12 3.61,-6.24 5.65,-13.12 3,-23 -2.65,-9.88 -2.88,-10.2 -19.28,-18.07 -16.4,-7.87 -40.34,-17.05 -44.93,-20.33 -4.59,-3.28 -7.89,-1.93 -8.52,0.36 z"
       style="fill:#ffffff;stroke:#263238;stroke-linecap:round;stroke-linejoin:round"
       id="path5" /></clipPath><clipPath
     id="freepik--clip-path-3--inject-6"><path
       d="m 276.42,206.8 c 0,0 29.32,17 48.77,25.45 19.45,8.45 44.22,21.67 46,32.72 1.78,11.05 -10.61,21.23 -15.47,25.2 -4.86,3.97 -14.6,13.71 -14.6,13.71 0,0 23.88,-13.26 32.28,-19.45 8.4,-6.19 11.5,-16.81 8,-35.82 -3.5,-19.01 -5.75,-48.2 -16.36,-64.56 -10.61,-16.36 -36.7,-7.52 -55.71,0.88 a 125.47,125.47 0 0 0 -32.91,21.87 z"
       style="fill:#616161;stroke:#263238;stroke-linecap:round;stroke-linejoin:round"
       id="path8" /></clipPath><filter
     inkscape:collect="always"
     style="color-interpolation-filters:sRGB"
     id="filter20587"
     x="-0.00019003871"
     y="-0.00014443729"
     width="1.0003801"
     height="1.0002889"><feGaussianBlur
       inkscape:collect="always"
       stdDeviation="0.0063223883"
       id="feGaussianBlur20589" /></filter></defs><sodipodi:namedview
   id="namedview5"
   pagecolor="#505050"
   bordercolor="#eeeeee"
   borderopacity="1"
   inkscape:pageshadow="0"
   inkscape:pageopacity="0"
   inkscape:pagecheckerboard="0"
   showgrid="false"
   inkscape:zoom="1"
   inkscape:cx="98"
   inkscape:cy="248.5"
   inkscape:window-width="1920"
   inkscape:window-height="1001"
   inkscape:window-x="-9"
   inkscape:window-y="-9"
   inkscape:window-maximized="1"
   inkscape:current-layer="Layer_1"
   inkscape:snap-bbox="true"
   inkscape:snap-bbox-edge-midpoints="true"
   inkscape:bbox-nodes="true"
   inkscape:bbox-paths="true"
   inkscape:snap-bbox-midpoints="true"
   inkscape:object-paths="true"
   inkscape:snap-intersection-paths="true"
   inkscape:snap-midpoints="true"
   inkscape:snap-smooth-nodes="true"
   inkscape:snap-global="true"
   fit-margin-top="0"
   fit-margin-left="0"
   fit-margin-right="0"
   fit-margin-bottom="0"
   showguides="false" />
<path
   style="fill:#3b4eb0;fill-opacity:1;stroke:none;stroke-width:1px;stroke-linecap:butt;stroke-linejoin:miter;stroke-opacity:1"
   d="M 372.7896,6.7154193 C 284.20046,-19.496681 175.53049,34.901749 112.78961,102.71542 57.969464,161.96794 17.971584,260.31228 46.789614,335.71541 c 25.78041,67.4551 87.500396,95.33536 156.280566,117.33783 49.6002,14.1283 127.88841,28.38619 170.53039,15.17506 C 472.2515,439.78087 519.34004,287.64068 508.7896,188.71542 500.75813,113.40904 445.41084,28.202879 372.7896,6.7154193 Z"
   id="path1007"
   sodipodi:nodetypes="ccccccc" />
<path
   style="fill:#1f384b;fill-opacity:1;stroke:#000000;stroke-width:0.381737px;stroke-linecap:butt;stroke-linejoin:miter;stroke-opacity:1"
   d="m 377.02405,177.88133 c 0,0 13.47375,38.43734 15.1226,59.55093 2.89111,37.02033 -15.1226,109.17672 -15.1226,109.17672 l -9.1617,75.58391 c 0,0 -105.45123,0.41158 -147.52092,-0.81856 8.72933,-46.28406 35.63726,-91.66579 34.52685,-132.21672 -26.64642,8.4486 -63.07017,14.77457 -81.88604,18.6603 -14.7143,3.03868 -12.25383,3.60712 -22.85276,0.43613 C 113.28186,289.74013 60.945984,236.6688 60.945984,236.6688 l 16.72705,-40.35814 84.814936,54.10065 77.48133,-39.26792 38.57461,-33.41553 z"
   id="path1182"
   sodipodi:nodetypes="csccccsccccccc" /><path
   style="fill:#162734;fill-opacity:1;stroke:none;stroke-width:0.381737px;stroke-linecap:butt;stroke-linejoin:miter;stroke-opacity:1"
   d="m 60.945984,236.6688 c -0.81226,-3.97843 -1.17973,-12.90157 -0.27333,-18.64247 1.44265,-9.13747 12.73904,-24.6958 20.11789,-19.1166 7.00377,5.66541 -18.8513,42.62402 -19.84456,37.75907 z"
   id="path25468"
   sodipodi:nodetypes="sscs" /><path
   style="fill:#ffffff;fill-opacity:1;stroke:none;stroke-width:0.143084px;stroke-linecap:butt;stroke-linejoin:miter;stroke-opacity:1"
   d="m 1.551824,144.64434 c 3.65236,0.31482 9.52477,-1.48435 10.3568,-1.48202 0.25197,0 13.87439,2.35841 18.11842,2.72977 6.3533,2.61585 15.20912,11.40854 22.04143,17.13858 6.27262,5.26068 13.7452,27.71085 15.00067,26.84692 l 12.35589,11.64538 -4.17101,25.36299 c 0,0 -10.90848,-12.72719 -17.26739,-15.69076 -3.49068,-1.62688 -7.32858,-0.35945 -12.01261,-1.80762 -5.24148,-1.62051 -12.10023,-7.61592 -11.99506,-8.02909 7.9e-4,-0.009 -8.3144,-2.75577 -11.85187,-4.47796 -3.91897,-2.80559 -8.72241,-5.32736 -11.50332,-8.8907 -1.69626,-2.17349 -0.72805,-5.38679 2.16363,-6.69954 1.8428,-0.83658 3.89095,-1.45607 5.9132,-1.37695 3.98234,0.1558 7.49717,1.51532 10.88028,3.08774 3.40701,1.58346 9.30074,6.29924 9.30074,6.29924 l 0.5362,-4.01645 c 0.0787,-0.18429 -4.29223,-1.5055 -7.10512,-2.75302 -6.43886,-0.0727 -10.26572,10.71326 -15.93361,12.59883 -0.86773,0.28867 -2.25988,-1.5555 -2.25988,-1.5555 0,0 -3.43905,2.59018 -5.01844,1.83842 -1.45724,-0.69361 -1.65091,-3.39285 -1.29901,-4.66414 -1.38088,0.01 -4.24285,0.50585 -4.32946,-1.9191 -0.0463,-1.29659 1.74924,-3.36469 2.40335,-5.13906 0.52381,-1.42093 0.10526,-3.341 1.20711,-4.37985 4.04446,-3.81328 7.11563,-10.22938 11.32599,-13.92915 4.38852,-1.39771 14.66021,-1.7948 14.51082,-2.28705 -0.15741,0.37094 -5.35072,-4.36097 -7.91002,-7.3747 -1.01618,-1.19664 -5.02994,1.04642 -9.99654,-2.72385 -3.98848,0.22019 -10.94391,0.69355 -13.73502,-2.94677 -1.09756996,-1.43151 -1.52334996,-5.55954 0.27383,-5.40459 z"
   id="path7610"
   sodipodi:nodetypes="sscscccssccsssscccscccsscccscss" /><path
   style="fill:#ffffff;fill-opacity:1;stroke:#000000;stroke-width:0.476;stroke-linecap:butt;stroke-linejoin:miter;stroke-miterlimit:4;stroke-dasharray:none;stroke-opacity:1"
   d="m 183.44111,358.89576 -22.51847,9.57372 c -0.0332,0.0608 -21.35732,-4.73681 -21.35732,-4.73681 0,0 -15.80757,1.77582 -22.72931,3.56797 -2.99769,0.77614 -4.86538,4.31211 -7.59574,7.14212 -0.82384,2.3857 -2.71852,4.5196 -3.80728,6.0476 -0.40067,1.81123 0.34122,4.45155 0.20949,6.78225 -1.8133,1.3699 -2.67848,4.44316 0.0807,4.69488 2.45721,0.22418 6.67639,-1.30591 10.16103,-1.35152 4.90128,0.60479 10.30418,0.79424 15.20683,2.29145 3.284,0.75476 9.00059,4.21768 8.97664,4.26149 0.007,-0.17892 -7.31505,-0.0342 -10.60772,0.84746 -3.00241,0.34955 -5.85688,-0.52671 -8.21644,1.3625 -1.73665,1.19452 -3.98379,3.38283 -2.19111,5.78484 2.15126,-0.64426 6.84293,0.002 9.85101,1.56186 5.05206,-0.43911 10.06783,-2.05602 14.79037,-3.21292 7.69845,-1.88596 21.07129,-11.01861 21.07129,-11.01861 l 18.85828,-9.06366 z"
   id="path36257"
   sodipodi:nodetypes="cccscccscccccccsccc" /><path
   style="fill:#1f384b;fill-opacity:1;stroke:#000000;stroke-width:1.22157;stroke-linecap:butt;stroke-linejoin:miter;stroke-miterlimit:4;stroke-dasharray:none;stroke-opacity:1"
   d="m 371.10582,262.01914 c -6.60511,40.18333 -76.11986,95.55476 -76.11986,95.55476 l -118.76863,43.72845 -5.39857,-37.25017 92.3156,-42.64873 c 0,0 28.54479,-62.80909 53.44589,-85.29746 10.57164,-9.54733 25.11714,-24.21807 38.32987,-18.895 14.73122,5.93481 18.77171,29.13669 16.1957,44.80815 z"
   id="path5448"
   sodipodi:nodetypes="cccccccc" /><path
   style="fill:none;stroke:#000000;stroke-width:0.463;stroke-linecap:round;stroke-linejoin:round;stroke-miterlimit:4;stroke-dasharray:none;stroke-opacity:1"
   d="m 105.64248,387.27261 7.69128,-5.34458 14.35746,-0.87222"
   id="path39626" /><path
   style="fill:#162734;fill-opacity:1;stroke:none;stroke-width:0.381737px;stroke-linecap:butt;stroke-linejoin:miter;stroke-opacity:1"
   d="m 176.21733,401.30235 c 0,0 -0.75389,-5.19679 -2.28992,-15.80047 7.00423,-7.95306 71.09257,-26.52565 97.43978,-34.67619 2.99815,-3.68209 -1.1096,-8.95589 -4.99368,-15.18349 9.3457,-0.7419 11.4674,7.74474 12.28176,10.05483 -0.75756,-4.93251 -4.11459,-10.52644 -10.88662,-18.9691 12.75051,2.34122 14.44462,6.84094 15.54131,9.44312 0.43821,-4.36091 -1.48545,-4.42498 -4.48598,-8.55924 3.64844,-0.86985 9.17708,4.36583 12.4459,4.42224 37.74111,0.65136 51.33389,-52.9475 62.83044,-86.75048 3.01432,-8.86285 1.87867,-18.77239 0.8098,-28.07258 -1.21273,-10.55193 -8.12058,-30.81205 -8.12058,-30.81205 l 28.58578,-13.10738 c 0,0 23.51313,53.20067 24.02432,71.77545 1.77233,64.39619 -15.91499,115.71411 -24.28428,184.76061 -5.82351,-0.16713 -107.00892,-3.12814 -130.55397,-3.81736 23.15182,-8.61007 55.45076,-27.71339 68.6884,-40.31048 14.47404,-22.37638 32.06772,-77.21881 32.06772,-77.21881 l -50.33155,49.09293 z"
   id="path28565"
   sodipodi:nodetypes="cccccccccssccscccccc" /><path
   d="m 252.75316,69.312089 c 0,0 -1.85432,27.59239 -6.02008,51.355011 -4.16577,23.76263 15.97903,44.23429 28.29599,55.39352 12.31697,11.15924 24.06374,17.56948 29.22616,21.82969 a 27.637919,27.637919 0 0 1 7.31413,9.23487 c 0,0 7.62501,-8.13514 18.44852,-10.57278 10.82346,-2.43764 29.17183,-12.43446 34.65533,-26.13378 5.48349,-13.69933 3.28438,-44.80654 -28.48792,-72.826321 -31.7723,-28.01976 -74.57247,-32.76131 -74.57247,-32.76131 z"
   style="fill:#162734;fill-opacity:1;stroke:#263238;stroke-width:1.29878;stroke-linecap:round;stroke-linejoin:round"
   id="path150" /><path
   d="m 266.23209,72.253529 c 0,0 -3.62592,24.0149 -3.10566,29.268621 0.52026,5.25372 5.30792,30.52581 6.39606,37.58595 1.08815,7.06014 12.99934,39.43673 16.08781,44.64476 3.08846,5.20803 21.23157,-3.69018 21.23157,-3.69018 l 6.21815,21.6264 c 0,0 25.03907,-30.21269 30.88503,-37.52624 5.84596,-7.31356 9.79979,-15.75342 8.31236,-28.95533 -1.48748,-13.20192 -1.7208,-13.65747 -21.25602,-26.94422 -19.53518,-13.286741 -48.49938,-29.717821 -53.75795,-34.820051 -5.25858,-5.10224 -9.75827,-4.00841 -11.01135,-1.18971 z"
   style="fill:#ffffff;stroke-width:1.29878"
   id="path152" /><g
   clip-path="url(#freepik--clip-path-2--inject-6)"
   id="g158"
   transform="matrix(1.2842188,0.19389916,-0.19389916,1.2842188,-65.016386,-251.20374)"
   style="fill:#dedede;fill-opacity:1"><path
     d="m 362.11,246.26 c -2.63,-9.84 -2.88,-10.2 -19.28,-18.07 -5.17,-2.48 -11.1,-5.1 -16.93,-7.62 6.75,9.61 19.54,28.63 21.26,37.21 2.34,11.73 -10.56,23.07 -22.29,28.94 -3.52,1.76 -6,3.17 -7.79,4.27 2.57,2.55 11.07,-2.48 14.31,-4.56 l 21.24,-15.74 a 6.63,6.63 0 0 1 3.95,2.77 c 1.06,-1.78 1.93,-3.25 2.5,-4.24 3.6,-6.22 5.65,-13.12 3.03,-22.96 z"
     style="fill:#dedede;fill-opacity:1"
     id="path154" /><path
     d="m 362.11,246.26 c -2.63,-9.84 -2.88,-10.2 -19.28,-18.07 -5.17,-2.48 -11.1,-5.1 -16.93,-7.62 6.75,9.61 19.54,28.63 21.26,37.21 2.34,11.73 -10.56,23.07 -22.29,28.94 -3.52,1.76 -6,3.17 -7.79,4.27 2.57,2.55 11.07,-2.48 14.31,-4.56 l 21.24,-15.74 a 6.63,6.63 0 0 1 3.95,2.77 c 1.06,-1.78 1.93,-3.25 2.5,-4.24 3.6,-6.22 5.65,-13.12 3.03,-22.96 z"
     style="opacity:0.5;fill:#dedede;fill-opacity:1"
     id="path156" /></g><path
   d="m 266.23209,72.253529 c 0,0 -3.62592,24.0149 -3.10566,29.268621 0.52026,5.25372 5.30792,30.52581 6.39606,37.58595 1.08815,7.06014 12.99934,39.43673 16.08781,44.64476 3.08846,5.20803 21.23157,-3.69018 21.23157,-3.69018 l 6.21815,21.6264 c 0,0 25.03907,-30.21269 30.88503,-37.52624 5.84596,-7.31356 9.79979,-15.75342 8.31236,-28.95533 -1.48748,-13.20192 -1.7208,-13.65747 -21.25602,-26.94422 -19.53518,-13.286741 -48.49938,-29.717821 -53.75795,-34.820051 -5.25858,-5.10224 -9.75827,-4.00841 -11.01135,-1.18971 z"
   style="fill:none;stroke:#263238;stroke-width:1.29878;stroke-linecap:round;stroke-linejoin:round"
   id="path160"
   sodipodi:nodetypes="csssccssssc" /><path
   d="m 274.93302,114.49575 c 0,0 -3.13222,-7.78908 -9.81038,-9.23084"
   style="fill:none;stroke:#263238;stroke-width:3.89631px;stroke-linecap:round;stroke-linejoin:round"
   id="path178" /><path
   d="m 286.36175,118.40173 c 0,0 3.31437,-7.94534 24.5652,-2.97668"
   style="fill:none;stroke:#263238;stroke-width:3.89631px;stroke-linecap:round;stroke-linejoin:round"
   id="path176" /><path
   d="m 281.24112,121.09817 c 0,0 -6.05682,20.19337 -8.56709,25.42298 -2.51028,5.2296 13.87501,5.10284 19.04802,5.03012"
   style="fill:#ffffff;stroke:#263238;stroke-width:1.29878;stroke-linecap:round;stroke-linejoin:round"
   id="path172" /><path
   d="m 306.84043,180.03456 c 8.6271,-3.75417 21.07892,-10.16328 29.21557,-14.8872"
   style="fill:none;stroke:#263238;stroke-width:1.34727;stroke-linecap:round;stroke-linejoin:round"
   id="path174"
   sodipodi:nodetypes="cc" /><path
   style="fill:#263238;fill-opacity:1;stroke:#000000;stroke-width:0.381737px;stroke-linecap:butt;stroke-linejoin:miter;stroke-opacity:1"
   d="m 266.23209,72.253529 c -6.12565,5.19531 -13.30926,16.36524 -14.60822,22.15629 5.38388,-0.8725 14.50138,-5.67093 14.60822,-5.55074 0,0 -7.17816,4.10342 -8.01648,7.82561 6.63527,-1.76645 12.76602,-2.33533 12.76602,-2.33533 -3.15297,0.94209 -4.83171,2.89771 -5.10548,5.819261 0,0 9.71576,-2.391381 13.18283,-2.442921 3.46706,-0.0515 5.70174,1.67597 8.55037,1.24941 2.64569,-0.39617 7.253,-3.43563 7.253,-3.43563 l 35.88327,-3.24476 12.21558,-11.26124 -18.13251,-21.759 -37.79195,2.86303 c 0,0 -14.92372,5.12826 -20.80465,10.11602 z"
   id="path9695"
   sodipodi:nodetypes="scccccsscccccs" /><path
   d="m 264.29498,109.2295 c 0,0 2.59755,4.68857 17.46852,7.67575 14.87096,2.98718 26.34294,0.76874 32.73291,-0.94564 5.92932,-1.8268 20.35406,-2.5984 26.06263,-5.02872 0,0 3.83137,-0.41561 3.40276,2.98718 -0.42858,3.40279 -26.94942,6.7633 -26.94942,6.7633 0,0 6.15167,14.67443 2.3073,18.5188 -3.84437,3.84436 -14.12629,3.29093 -22.21766,1.99216 -8.09136,-1.29876 -11.07378,-12.96211 -11.92274,-14.90993 -0.74155,-1.70139 -0.87399,-6.60227 -3.3936,-6.60227 -4.50892,10.91971 -3.54701,12.68623 -7.25635,18.53802 -4.25997,0.008 -11.07855,-4.68858 -11.93574,-14.49433 -0.85719,-9.80575 -2.9742,-14.06573 1.70139,-14.49432 z"
   style="fill:#bbe2e1;fill-opacity:1;stroke:#263238;stroke-width:1.29878;stroke-linecap:round;stroke-linejoin:round"
   id="path164"
   sodipodi:nodetypes="csccscsssccsc" /><path
   style="fill:#263238;fill-opacity:1;stroke:none;stroke-width:1px;stroke-linecap:round;stroke-linejoin:round;stroke-opacity:1"
   d="m 263.44144,109.24736 c 23.11476,12.16697 36.31923,7.24879 51.62949,5.96095 l 23.43151,-6.43949 0.97199,5.39554 -22.46205,6.51701 c -11.6155,1.26748 -21.4558,0.67949 -35.78121,-0.98876 l -19.81909,-8.18816 z"
   id="path20812"
   sodipodi:nodetypes="cccccccc" /><path
   d="m 252.75316,69.312089 c 0,0 34.35701,27.51685 57.69662,42.139831 23.33962,14.62299 52.58635,36.40324 52.72969,50.93901 0.1433,14.53575 -17.74206,25.20669 -24.75315,29.36269 -7.01106,4.156 -21.40793,14.77571 -21.40793,14.77571 0,0 33.23826,-12.39843 45.22594,-18.71899 11.98764,-6.32056 18.02794,-19.35788 17.21919,-44.44953 -0.80875,-25.09164 1.96167,-63.014261 -8.4917,-86.081351 -10.45336,-23.06709 -45.67269,-16.77343 -71.71445,-9.67201 a 162.95722,162.95722 0 0 0 -46.50421,21.70464 z"
   style="fill:#1f384b;fill-opacity:1;stroke-width:1.29878"
   id="path182" /><g
   clip-path="url(#freepik--clip-path-3--inject-6)"
   id="g186"
   transform="matrix(1.2842188,0.19389916,-0.19389916,1.2842188,-62.132266,-249.86197)"
   style="fill:#0a1218;fill-opacity:1;fill-rule:nonzero;filter:url(#filter20587)"><path
     d="m 303.76,210.08 c 0,0 18.37,10.92 33.24,18.77 14.87,7.85 33.23,19.55 37.54,26.2 4.31,6.65 3.12,10.55 -0.79,17.59 -3.91,7.04 -9,10.95 -3.52,11.34 5.48,0.39 10.95,-10.17 10.95,-18.77 0,-8.6 -1.56,-17.2 -3.91,-31.67 -2.35,-14.47 -9,-43 -15.64,-50 -6.64,-7 -18.37,-5.86 -30.49,2.35 -12.12,8.21 11.33,12.12 9,18.38 -1.67,4.43 -11.91,0.09 -14.68,-0.7 -9.34,-2.66 -13.68,-2.26 -22.75,1.48 -2.77,1.08 -0.8,3.95 1.05,5.03 z"
     style="opacity:0.3;fill:#0a1218;fill-opacity:1;fill-rule:nonzero"
     id="path184" /></g><path
   d="m 252.75316,69.312089 c 0,0 34.35701,27.51685 57.69662,42.139831 23.33962,14.62299 52.58635,36.40324 52.72969,50.93901 0.1433,14.53575 -17.74206,25.20669 -24.75315,29.36269 -7.01106,4.156 -21.40793,14.77571 -21.40793,14.77571 0,0 33.23826,-12.39843 45.22594,-18.71899 11.98764,-6.32056 18.02794,-19.35788 17.21919,-44.44953 -0.80875,-25.09164 1.96167,-63.014261 -8.4917,-86.081351 -10.45336,-23.06709 -45.67269,-16.77343 -71.71445,-9.67201 a 162.95722,162.95722 0 0 0 -46.50421,21.70464 z"
   style="fill:none;stroke:#263238;stroke-width:1.29878;stroke-linecap:round;stroke-linejoin:round"
   id="path188" /><path
   style="fill:#162734;fill-opacity:1;stroke:none;stroke-width:0.381737px;stroke-linecap:butt;stroke-linejoin:miter;stroke-opacity:1"
   d="m 254.86828,289.15761 c 7.96067,-9.03322 20.25036,-35.68648 18.67588,-52.31198 -19.04589,10.47324 -58.94624,35.13064 -112.36377,45.38775 C 104.06395,262.67083 60.945984,236.6688 60.945984,236.6688 c 0,0 71.352256,78.78015 100.496096,73.55612 36.39074,-6.52302 62.89117,-7.52399 93.4262,-21.06731 z"
   id="path34195"
   sodipodi:nodetypes="ccccsc" /><path
   style="fill:none;stroke:#000000;stroke-width:0.463;stroke-linecap:round;stroke-linejoin:round;stroke-miterlimit:4;stroke-dasharray:none;stroke-opacity:1"
   d="m 109.24027,374.44276 18.92959,-2.90232"
   id="path39628"
   sodipodi:nodetypes="cc" /><path
   style="fill:#707070;fill-opacity:0.12334;stroke:none;stroke-width:0.0832704px;stroke-linecap:butt;stroke-linejoin:miter;stroke-opacity:1"
   d="m 119.05808,405.7624 c -0.52034,-0.78015 -0.29235,-2.36521 0.36488,-2.97538 1.20983,-1.12327 3.19922,-0.23526 4.54391,0.63476 0.91963,0.59497 2.18471,2.93904 2.02484,2.88644 -0.0511,-0.6974 -5.01467,-1.1181 -6.93363,-0.54582 z"
   id="path39630"
   sodipodi:nodetypes="ccccc" /><path
   style="fill:#676767;fill-opacity:0.185958;stroke:none;stroke-width:0.0756883px;stroke-linecap:butt;stroke-linejoin:miter;stroke-opacity:1"
   d="m 105.42689,387.4442 c 0.33821,0.36775 0.51804,1.61192 0.60776,1.93794 -0.0846,0.71994 -0.67425,2.83531 -1.325,2.27183 -1.36843,-0.28902 -0.5793,-3.65247 0.71724,-4.20977 z"
   id="path39632"
   sodipodi:nodetypes="cccc" /><path
   style="fill:#dedede;fill-opacity:1;stroke:none;stroke-width:0.0756883px;stroke-linecap:butt;stroke-linejoin:miter;stroke-opacity:1"
   d="m 128.90336,406.72557 c -1.65563,-3.25838 5.44302,-5.03519 8.7289,-6.63563 3.45868,-1.68458 11.16376,-2.92797 11.16376,-2.92797 0,0 -6.46635,-3.6717 -10.14058,-5.38617 -3.10369,-1.4482 -7.30152,-2.79886 -10.18845,-3.92486 -4.4477,-1.73479 -9.48651,-1.17212 -14.1611,-2.14144 -1.96019,-0.40645 -6.19755,0.7951 -6.19755,0.7951 0,0 3.19819,-3.22533 5.4696,-3.96463 6.37102,-0.38705 14.35578,-1.21973 14.11328,-1.48411 l 2.059,-0.67815 c 0,0 -3.72681,-2.40318 -5.83895,-2.9381 -5.14858,-1.30392 -15.20751,-0.35126 -15.20751,-0.35126 l 0.88905,-2.69964 8.02216,-1.22995 10.55489,-1.61828 1.49513,-1.35255 -12.82898,-2.88724 20.12868,-3.25975 c 6.42565,-1.5215 15.97197,2.9524 23.95795,4.42859 l 13.5322,-5.75322 -0.50447,12.7589 -0.63028,12.90714 c 0,0 -14.51719,7.70194 -20.03229,11.06039 -7.24526,4.41205 -16.41077,5.74332 -24.38444,7.28288 z"
   id="path43833"
   sodipodi:nodetypes="ccccccccccccccccccccccccc" /><path
   style="fill:none;stroke:#000000;stroke-width:0.114521;stroke-linecap:butt;stroke-linejoin:miter;stroke-miterlimit:4;stroke-dasharray:none;stroke-opacity:1"
   d="m 105.83343,380.78776 2.59806,-0.1012 1.28217,0.40489"
   id="path53880" /><path
   style="fill:none;stroke:#000000;stroke-width:0.0763473;stroke-linecap:butt;stroke-linejoin:miter;stroke-miterlimit:4;stroke-dasharray:none;stroke-opacity:1"
   d="m 106.77818,379.94423 2.69928,0.23619 1.55209,0.64109"
   id="path53882" /><path
   style="fill:none;stroke:#000000;stroke-width:0.0381737;stroke-linecap:butt;stroke-linejoin:miter;stroke-miterlimit:4;stroke-dasharray:none;stroke-opacity:1"
   d="m 115.78706,367.89866 1.18092,1.1472 1.07972,1.7208"
   id="path53884" /><path
   style="fill:none;stroke:#000000;stroke-width:0.0381737;stroke-linecap:butt;stroke-linejoin:miter;stroke-miterlimit:4;stroke-dasharray:none;stroke-opacity:1"
   d="m 116.76555,367.56127 1.88949,2.8005"
   id="path53886" /><path
   style="fill:none;stroke:#000000;stroke-width:0.0381737;stroke-linecap:butt;stroke-linejoin:miter;stroke-miterlimit:4;stroke-dasharray:none;stroke-opacity:1"
   d="m 113.57794,382.53997 0.95435,2.57672 -0.47718,2.38586"
   id="path53888" /><path
   style="fill:none;stroke:#000000;stroke-width:0.0381737;stroke-linecap:butt;stroke-linejoin:miter;stroke-miterlimit:4;stroke-dasharray:none;stroke-opacity:1"
   d="m 115.1526,383.25573 0.42947,2.14726 -0.23859,1.81325"
   id="path53890" /><path
   style="fill:#1f384b;fill-opacity:1;stroke:none;stroke-width:0.41998px;stroke-linecap:butt;stroke-linejoin:miter;stroke-opacity:1"
   d="m 367.85286,426.37569 c 10.4415,3.01092 -10.18549,44.17474 -12.53954,45.67174 -34.89413,3.71181 -55.89656,0.87184 -92.31443,-5.28392 -45.99945,-8.30488 -32.18417,-4.78842 -59.92871,-13.71027 l 22.02186,-33.14665 z"
   id="path1098"
   sodipodi:nodetypes="cccccc" /><path
   style="fill:#162734;fill-opacity:1;stroke:none;stroke-width:0.41998px;stroke-linecap:butt;stroke-linejoin:miter;stroke-opacity:1"
   d="m 367.85286,426.37569 -48.58215,-2.34482 c 0,0 -41.15522,-14.07978 -63.36579,-2.72802 -28.12829,25.44919 -33.5739,27.95634 6.95709,40.4916 47.32062,8.0035 99.78903,-5.73826 104.99085,-35.41876 z"
   id="path11805"
   sodipodi:nodetypes="ccccc" /><path
   style="fill:none;stroke:#000000;stroke-width:1;stroke-linecap:round;stroke-linejoin:round;stroke-miterlimit:4;stroke-dasharray:none;stroke-opacity:1"
   d="m 29.580884,183.00108 2.73182,-0.47023 c 2.34368,0.93502 4.71728,1.85269 7.1038,2.76288 l -0.53488,4.00659 c 0,0 -7.39555,-6.62718 -10.91079,-7.02267 -17.58552,-7.07703 -24.88834,6.02657 -5.84374,14.60288 4.10311,1.94815 11.85469,4.47571 11.85187,4.47796 8.11792,7.58901 16.11447,10.64344 24.00767,9.83671 -0.24332,-0.19398 6.77343,5.39993 10.16015,8.0999"
   id="path1088"
   sodipodi:nodetypes="ccccccccc" /><path
   style="fill:none;stroke:#000000;stroke-width:1px;stroke-linecap:round;stroke-linejoin:round;stroke-opacity:1"
   d="m 17.693724,194.52378 c -0.10041,0.68178 -2.67807,1.26615 -3.57451,-0.9496 -4.47199,2.66855 -6.54792,4.57097 -6.31745,-2.82572 -1.45809,-0.99054 -6.03666,1.41817 -3.42515,-4.24975 1.25514,-1.85343 2.39321,-4.60927 2.70615,-7.18826 2.98057,-5.18915 11.32599,-13.92915 11.32599,-13.92915 l 14.51082,-2.28705 c -0.12323,0.20986 -5.48503,-4.38712 -7.91002,-7.3747 -2.94795,-0.8776 -6.32431,0.37792 -9.99654,-2.72385 -5.30687,-0.54804 -15.81679996,1.10701 -14.38182996,-7.83846 1.28134996,0.0322 7.73776996,-1.0932 11.27743996,-1.99492 6.10759,0.0226 18.11842,2.72977 18.11842,2.72977 10.17907,5.38912 16.01647,12.40434 23.60883,18.76226 l 13.43327,25.22324 9.54255,8.99382"
   id="path2605"
   sodipodi:nodetypes="ccccccccccccccc" /><path
   style="fill:none;stroke:#000000;stroke-width:0.8;stroke-linecap:round;stroke-linejoin:round;stroke-miterlimit:4;stroke-dasharray:none;stroke-opacity:1"
   d="m 7.801764,190.74846 c 1.3132,-0.46423 2.9832,-1.45468 3.5464,-2.83557"
   id="path5978"
   sodipodi:nodetypes="cc" /><path
   style="fill:none;stroke:#000000;stroke-width:1px;stroke-linecap:butt;stroke-linejoin:miter;stroke-opacity:1"
   d="m 14.119214,193.57418 0.80958,-1.0692"
   id="path5982" /><path
   style="fill:none;stroke:#000000;stroke-width:0.8;stroke-linecap:round;stroke-linejoin:round;stroke-miterlimit:4;stroke-dasharray:none;stroke-opacity:1"
   d="m 38.454714,160.57943 c -2.08533,1.98926 -3.2068,2.08742 -5.53514,2.51482 8.35904,6.17425 8.51608,22.15104 6.49825,22.18962"
   id="path6720"
   sodipodi:nodetypes="ccc" /><path
   style="fill:none;stroke:#000000;stroke-width:0.4;stroke-linecap:round;stroke-linejoin:round;stroke-miterlimit:4;stroke-dasharray:none;stroke-opacity:1"
   d="m 17.011784,180.36123 c 1.97441,-1.49607 4.05612,-2.82352 5.23716,-5.56631 4.0415,-0.75732 8.82497,-0.40084 11.22807,-2.90578"
   id="path7611"
   sodipodi:nodetypes="ccc" /><path
   style="fill:none;stroke:#000000;stroke-width:0.4;stroke-linecap:round;stroke-linejoin:round;stroke-miterlimit:4;stroke-dasharray:none;stroke-opacity:1"
   d="m 25.853434,181.42937 c 1.20495,-1.28662 1.90801,-2.22944 2.05236,-2.78956 3.66613,0.25067 4.82557,-1.16979 6.89041,-1.98664"
   id="path7613"
   sodipodi:nodetypes="ccc" /><path
   style="fill:none;stroke:#000000;stroke-width:0.4;stroke-linecap:round;stroke-linejoin:round;stroke-miterlimit:4;stroke-dasharray:none;stroke-opacity:1"
   d="m 22.248944,174.79492 c 0.2075,-1.82457 -0.42974,-3.55168 -2.38649,-5.12653"
   id="path9116"
   sodipodi:nodetypes="cc" /><path
   style="fill:none;stroke:#000000;stroke-width:0.4;stroke-linecap:round;stroke-linejoin:round;stroke-miterlimit:4;stroke-dasharray:none;stroke-opacity:1"
   d="m 27.905794,178.63981 c -0.49656,-0.9934 -1.00145,-1.97918 -2.47487,-2.07713"
   id="path9118"
   sodipodi:nodetypes="cc" /><path
   style="fill:none;stroke:#000000;stroke-width:0.4;stroke-linecap:round;stroke-linejoin:round;stroke-miterlimit:4;stroke-dasharray:none;stroke-opacity:1"
   d="m 32.312704,182.53085 c -0.34466,-0.85208 -0.22923,-1.91808 -1.48759,-2.34535"
   id="path9120"
   sodipodi:nodetypes="cc" /><path
   style="fill:none;stroke:#000000;stroke-width:0.4;stroke-linecap:round;stroke-linejoin:round;stroke-miterlimit:4;stroke-dasharray:none;stroke-opacity:1"
   d="m 12.787404,181.29029 c -0.42089,-0.47749 -0.8567,-0.95185 -2.82444,-1.10369"
   id="path9124"
   sodipodi:nodetypes="cc" /><path
   style="fill:none;stroke:#000000;stroke-width:0.4;stroke-linecap:round;stroke-linejoin:round;stroke-miterlimit:4;stroke-dasharray:none;stroke-opacity:1"
   d="m 15.013014,152.9957 c 1.24238,-0.89811 1.24849,-1.90519 0.84608,-3.74318"
   id="path9126"
   sodipodi:nodetypes="cc" /><path
   style="fill:none;stroke:#000000;stroke-width:0.4;stroke-linecap:round;stroke-linejoin:round;stroke-miterlimit:4;stroke-dasharray:none;stroke-opacity:1"
   d="m 25.009554,155.71955 c 0.84796,-1.39882 1.06302,-1.26289 1.17489,-3.8163"
   id="path9128"
   sodipodi:nodetypes="cc" /><path
   style="fill:none;stroke:#000000;stroke-width:0.4;stroke-linecap:butt;stroke-linejoin:miter;stroke-miterlimit:4;stroke-dasharray:none;stroke-opacity:1"
   d="m 32.919574,163.09425 c -0.33601,-0.11481 -0.97666,5.54048 0.55744,8.79489 0.15115,2.36599 0.94949,3.54813 1.31919,4.76403 -2.09017,5.09165 0.37148,7.50934 0.71487,7.13724"
   id="path10398"
   sodipodi:nodetypes="cccc" /><path
   d="m 276.27372,120.1908 -0.10712,3.73177 a 5.2389102,5.2862632 0 0 1 -4.31527,4.31225 14.356527,14.486292 0 0 1 -7.5063,-0.34104 c 0,0 -0.79723,-10.65145 -0.72456,-11.86089 a 2.4122365,2.4340401 0 0 1 0.57828,-1.65117 c 0,0 3.43533,4.48561 12.07497,5.80908 z"
   style="fill:#daefef;fill-opacity:1;stroke-width:1.06746"
   id="path168" /><path
   d="m 288.04188,125.75986 c 0,0 1.13078,8.50137 4.2264,9.92331 3.09562,1.42195 3.66502,1.41186 8.4528,-3.5498 4.78777,-4.96166 10.99506,-3.18676 10.99506,-3.18676 0,0 3.38434,-4.60869 3.38434,-6.37351 0,-1.76481 -1.13081,-1.06897 -1.13081,-1.06897 0,0 -2.12521,1.73456 -11.57247,2.2993 -3.37631,0.2017 -14.63601,-0.87736 -14.63601,-0.87736 z"
   style="fill:#ffffff;fill-opacity:0.462745;stroke-width:0.899309"
   id="path166" /></svg>
